<?xml version="1.0" encoding="UTF-8" standalone="no"?>
<svg
   xmlns:dc="http://purl.org/dc/elements/1.1/"
   xmlns:cc="http://creativecommons.org/ns#"
   xmlns:rdf="http://www.w3.org/1999/02/22-rdf-syntax-ns#"
   xmlns:svg="http://www.w3.org/2000/svg"
   xmlns="http://www.w3.org/2000/svg"
   id="svg119626"
   version="1.1"
   viewBox="0 0 333.85849 485.47739"
   height="485.47739mm"
   width="333.85849mm">
  <defs
     id="defs119620" />
  <metadata
     id="metadata119623">
    <rdf:RDF>
      <cc:Work
         rdf:about="">
        <dc:format>image/svg+xml</dc:format>
        <dc:type
           rdf:resource="http://purl.org/dc/dcmitype/StillImage" />
        <dc:title></dc:title>
      </cc:Work>
    </rdf:RDF>
  </metadata>
  <g
     transform="translate(326.06047,150.90155)"
     id="layer1">
    <path
       id="path120182"
       d="m -219.63772,334.01856 c -0.9193,-0.34759 -1.77181,-0.73233 -1.89445,-0.85496 -0.24103,-0.24105 -3.67582,-1.90673 -5.95909,-2.88981 -3.6403,-1.56739 -11.50078,-5.5819 -12.63069,-6.45072 -9.77598,-4.42893 -19.19276,-9.46498 -28.87408,-19.01617 -2.28655,-2.38132 -6.67081,-7.59774 -6.9215,-8.23528 -0.11445,-0.29104 -0.4746,-0.76729 -0.80033,-1.05833 -1.93624,-1.73002 -3.3058,-6.91102 -2.51788,-9.525 1.3397,-4.44458 3.03976,-8.07681 5.64405,-12.05872 1.72468,-2.63701 2.22393,-3.149 3.59071,-3.68244 0.87312,-0.34074 1.93488,-0.59224 2.35945,-0.55883 1.18511,0.0932 4.51792,1.77733 5.42228,2.73999 0.44435,0.473 0.95358,0.86 1.1316,0.86 0.17803,0 0.74567,0.33091 1.26143,0.73536 1.70412,1.33633 6.91128,4.55631 7.36822,4.55631 0.58968,0 0.56618,-0.63659 -0.0924,-2.50324 -0.70752,-2.0053 -1.61378,-2.92647 -3.62973,-3.68942 -1.7197,-0.65084 -5.34726,-2.79722 -7.47085,-4.42035 -0.6791,-0.51907 -1.99101,-1.1921 -2.91536,-1.49563 -1.14002,-0.37437 -2.35345,-1.21077 -3.77218,-2.60012 -1.15034,-1.12649 -3.29124,-3.14776 -4.75755,-4.49167 -2.67208,-2.44905 -3.22708,-3.37735 -2.01926,-3.37735 1.48916,0 1.20985,-0.8812 -1.17409,-3.70417 -2.21088,-2.61803 -4.05723,-6.37021 -4.3021,-8.74278 -0.45376,-4.39657 2.0283,-9.21773 6.22,-12.08179 l 2.36544,-1.61626 1.38519,0.51072 c 0.76185,0.28092 2.41706,0.91112 3.67824,1.40053 1.26119,0.48941 3.95993,1.21934 5.99723,1.62214 2.03729,0.40277 5.0914,1.11859 6.7869,1.59068 1.69551,0.47212 3.15868,0.7355 3.25148,0.58536 0.0928,-0.15018 -0.23671,-0.81266 -0.73224,-1.47221 -0.49554,-0.65952 -1.4438,-1.99291 -2.10724,-2.96305 -0.66345,-0.97014 -2.23615,-3.19264 -3.49489,-4.93889 -2.92036,-4.05141 -7.14803,-10.37453 -8.60921,-12.87639 -0.62326,-1.06715 -1.5827,-2.57528 -2.13208,-3.35139 -2.79052,-3.94215 -8.13217,-12.32189 -8.13217,-12.7574 0,-0.16139 -2.6693,-4.87577 -5.56035,-9.82038 -0.68067,-1.16416 -1.95758,-3.22791 -2.83758,-4.58611 -3.46294,-5.34473 -3.92617,-6.08083 -5.32815,-8.46666 -0.79811,-1.3582 -1.74749,-2.86632 -2.10974,-3.35139 -1.54849,-2.07353 -3.94554,-5.99894 -4.61039,-7.54997 -0.73848,-1.7228 -2.51311,-4.56613 -4.45614,-7.13967 -0.60646,-0.80326 -1.47024,-2.23201 -1.9195,-3.175 -0.44926,-0.94299 -1.09372,-2.07639 -1.43213,-2.51866 -0.3384,-0.44228 -0.71959,-1.42152 -0.84708,-2.17611 -0.23915,-1.41551 -1.829,-3.13688 -6.03284,-6.53191 -2.74696,-2.21845 -5.52728,-5.52257 -8.70997,-10.3509 -3.26042,-4.94626 -3.73861,-6.2488 -3.50084,-9.53594 0.12614,-1.74386 0.34441,-2.41446 0.9989,-3.06895 0.7199,-0.7199 0.83748,-1.17982 0.83748,-3.27573 0,-2.15811 0.1824,-2.82328 1.5875,-5.78949 0.87313,-1.84318 1.5875,-3.59567 1.5875,-3.89441 0,-0.29874 -0.56391,-1.21814 -1.25315,-2.04309 -0.68923,-0.82496 -1.47488,-2.0306 -1.74588,-2.67922 -0.27101,-0.6486 -0.65552,-1.17928 -0.85446,-1.17928 -0.19895,0 -0.64063,-0.515942 -0.98152,-1.146532 -0.51264,-0.9483 -0.6419,-2.29011 -0.74766,-7.76111 -0.0786,-4.06864 0.002,-6.61458 0.20998,-6.61458 0.50269,0 2.19769,-2.58155 2.19769,-3.34717 0,-0.36487 0.30803,-1.30884 0.6845,-2.0977 0.37647,-0.78886 1.09086,-2.52482 1.58754,-3.85767 1.29761,-3.48218 3.70743,-7.34803 6.54741,-10.50342 0.29104,-0.32337 0.81049,-0.99476 1.15432,-1.49199 0.37597,-0.5437 1.21968,-1.06316 2.11667,-1.30321 0.82033,-0.21954 2.79173,-1.01846 4.3809,-1.77539 2.61797,-1.24695 3.15649,-1.37623 5.73264,-1.37623 2.37287,0 2.95997,0.11672 3.5488,0.70556 0.66812,0.66812 1.17592,0.70555 9.57156,0.70555 8.33558,0 8.93632,0.0435 10.04154,0.72653 0.9395,0.58064 1.69165,0.71387 3.7458,0.66348 4.85679,-0.11912 12.09828,0.32324 14.56471,0.88971 1.35819,0.31195 4.93007,0.87557 7.9375,1.25251 3.00743,0.37694 6.5793,1.02761 7.9375,1.44593 4.87735,1.50223 5.67601,1.69835 7.88158,1.9354 l 2.23714,0.24044 -0.82603,-1.48128 c -0.45431,-0.81469 -1.17174,-2.11719 -1.59427,-2.89443 -0.42254,-0.77725 -0.99497,-1.76001 -1.27207,-2.18393 -0.27711,-0.42391 -0.62446,-1.16762 -0.7719,-1.65269 -0.29082,-0.95677 -3.97801,-8.82291 -5.20891,-11.112502 -0.41724,-0.776111 -0.9263,-1.792968 -1.13125,-2.259686 -1.44798,-3.297414 -3.92195,-8.154546 -4.62536,-9.080958 -0.46358,-0.610549 -1.3469,-2.165276 -1.96294,-3.45495 -0.61604,-1.289671 -1.39904,-2.494157 -1.74,-2.676631 -0.88735,-0.474892 -2.73975,-3.619122 -3.50081,-5.942196 -0.35777,-1.092069 -1.14111,-3.152965 -1.74076,-4.579768 -0.59964,-1.426806 -1.09026,-2.846013 -1.09026,-3.153794 0,-0.534127 -2.46978,-4.958754 -3.38825,-6.070071 -0.24053,-0.291041 -0.54791,-1.0054159 -0.68305,-1.5874999 -0.13515,-0.582083 -0.79027,-2.050485 -1.45582,-3.263113 -0.66555,-1.212631 -1.65321,-3.673256 -2.19479,-5.468055 -0.54158,-1.794803 -2.10914,-5.56515 -3.48346,-8.378553 -1.37431,-2.8134031 -2.74603,-5.6709031 -3.04825,-6.3500001 -0.30222,-0.679097 -1.40973,-2.584097 -2.46113,-4.233333 -3.16513,-4.964867 -4.3711,-7.2358 -4.55085,-8.569575 -0.094,-0.697286 -0.49857,-1.684433 -0.89913,-2.19366 -0.40056,-0.509224 -1.14726,-2.224882 -1.65932,-3.812565 -0.51207,-1.587683 -1.39068,-3.759824 -1.95247,-4.826977 -0.56179,-1.067153 -1.42922,-3.199832 -1.92761,-4.739283 -0.49839,-1.539455 -1.4506,-3.540661 -2.11601,-4.447131 -1.63053,-2.221233 -3.34097,-5.734649 -3.34097,-6.862706 0,-1.325156 0.87593,-2.825845 2.27006,-3.889202 0.74942,-0.571609 1.3004,-1.353266 1.44269,-2.046707 0.27886,-1.358924 2.52242,-8.750377 3.17818,-10.470525 0.25888,-0.679097 0.74034,-2.107847 1.06989,-3.175 0.32957,-1.067153 0.71988,-2.099028 0.86738,-2.293055 0.14748,-0.194028 0.54848,-1.384653 0.89108,-2.645834 0.34261,-1.26118 0.92694,-2.904846 1.29851,-3.652586 0.37157,-0.747745 1.62343,-4.240244 2.7819,-7.761111 1.15848,-3.52087 2.64402,-7.750954 3.30119,-9.400191 2.19147,-5.49968 3.31322,-8.61547 4.25474,-11.81805 0.51337,-1.74625 1.57023,-4.52438 2.34858,-6.17361 1.5146,-3.20929 3.45969,-8.57279 3.45969,-9.53995 0,-0.32348 0.63718,-1.84152 1.41595,-3.37341 0.77877,-1.53189 1.89988,-4.34293 2.49136,-6.24675 0.99456,-3.20129 1.93466,-4.82878 2.78927,-4.82878 0.19062,0 1.04035,0.67468 1.88828,1.4993 1.17671,1.14435 1.83521,2.25932 2.78147,4.70953 0.68188,1.76563 1.97378,4.28221 2.87089,5.59241 1.94448,2.83982 2.62139,4.77037 2.08526,5.94707 -0.27205,0.59708 -0.24465,1.11194 0.1032,1.93924 0.60051,1.42818 1.00804,1.423 1.58972,-0.0202 0.84076,-2.08601 2.08307,-3.79236 2.76104,-3.79236 0.3626,0 1.05879,0.51593 1.54711,1.14652 0.48832,0.63059 1.26123,1.53272 1.71757,2.00473 0.45634,0.472 1.16895,1.742 1.58358,2.82222 1.03684,2.70125 1.0479,2.70086 4.9695,-0.17543 0.73536,-0.53935 0.86292,-0.5269 2.03703,0.19874 1.57323,0.97231 2.29377,2.34309 2.29377,4.36379 0,2.18065 -0.26491,2.6922 -1.39418,2.6922 -1.13945,0 -1.89028,0.74204 -2.69027,2.65875 -0.32097,0.76901 -1.11787,1.95382 -1.77091,2.63292 -1.16899,1.21565 -4.02242,5.66288 -4.02242,6.26917 0,0.17083 -0.40385,0.69001 -0.89745,1.15372 -1.08578,1.020033 -3.34734,4.105152 -4.77353,6.511819 -0.57491,0.970139 -1.67537,2.756077 -2.44548,3.96875 -0.77011,1.212674 -1.26031,2.204861 -1.08934,2.204861 0.17098,0 0.38904,-0.198437 0.48458,-0.440972 0.0955,-0.242535 1.17724,-1.790347 2.4038,-3.439583 2.71255,-3.647324 2.42237,-3.266712 4.37481,-5.738093 0.88376,-1.118662 1.88082,-2.468037 2.2157,-2.998611 2.93253,-4.646361 9.4806,-12.293701 11.40128,-13.315301 0.77558,-0.41253 3.11215,-3.57742 4.4077,-5.97025 0.20309,-0.37509 0.62042,-0.84041 0.92741,-1.03406 1.26179,-0.79592 2.68127,1.02592 6.07849,7.80146 1.43436,2.86074 2.0049,3.11998 4.14395,1.8829 0.89093,-0.51526 1.50022,-0.61628 2.5778,-0.42744 1.37403,0.2408 1.40839,0.28171 1.30765,1.55668 -0.1183,1.49712 0.15466,1.59041 1.77063,0.60515 2.35938,-1.43852 2.78943,-0.32534 0.74906,1.93895 l -1.27156,1.41112 1.01516,0.17865 c 3.38754,0.59617 -1.47894,6.950804 -9.039,11.803093 -2.03729,1.307602 -4.02166,2.666128 -4.40972,3.018948 -0.38805,0.352821 -1.41993,0.916087 -2.29305,1.251698 -0.87313,0.335612 -1.98438,0.972524 -2.46945,1.415359 -0.99817,0.911271 -5.87112,4.19621 -7.80694,5.262802 -3.30367,1.820238 -11.08201,7.629486 -14.24052,10.635516 -1.72879,1.64533 -5.91577,4.72888 -7.10183,5.230226 -1.52059,0.642751 -1.82214,1.243979 -0.62394,1.243979 1.1306,0 3.54564,-1.459244 7.14779,-4.318902 3.31653,-2.632919 7.9131,-5.696945 11.51294,-7.674406 1.55223,-0.852663 3.60664,-2.114549 4.56536,-2.804188 3.17138,-2.281272 19.66381,-11.991466 25.76297,-15.168382 1.54641,-0.805494 2.92225,-1.643478 3.05742,-1.862193 0.13517,-0.218712 -0.0527,-1.154808 -0.41743,-2.080211 -0.36476,-0.925403 -0.8586,-3.034009 -1.09742,-4.685779 -0.40178,-2.77881 -0.38548,-3.0571 0.21809,-3.72403 0.79991,-0.88389 2.01136,-0.92949 2.74812,-0.10343 0.30285,0.33954 1.20714,2.00435 2.00954,3.69956 0.8024,1.6952 1.76278,3.24482 2.13419,3.4436 0.72054,0.385614 0.47804,0.486007 7.02832,-2.90983 1.77775,-0.92163 3.5537,-1.6757 3.94655,-1.6757 0.39286,0 1.03987,-0.17424 1.43781,-0.38721 0.55038,-0.29456 0.83137,-0.27345 1.17422,0.0882 0.53549,0.56483 4.54807,8.252009 4.9214,9.428255 0.70418,2.218694 2.38759,5.281464 2.81313,5.11817 0.25237,-0.09684 0.9519,-0.936991 1.55453,-1.866998 0.99476,-1.535176 1.09129,-1.934143 1.04803,-4.331578 -0.0262,-1.452362 0.0609,-2.816254 0.19353,-3.030876 0.4741,-0.767113 1.20339,-7.383543 1.26095,-11.439933 0.0411,-2.89826 0.26984,-4.89122 0.76733,-6.68647 0.67798,-2.44657 0.68247,-2.6158 0.1035,-3.89971 -0.59516,-1.31983 -0.58889,-1.38276 0.37686,-3.78171 1.46639,-3.64259 4.22265,-6.7164 9.75946,-10.88386 0.8465,-0.63715 2.15624,-1.62933 2.91052,-2.20486 0.75428,-0.57552 1.78899,-1.04641 2.29936,-1.04641 0.51036,0 1.53141,-0.41007 2.26899,-0.91128 1.99628,-1.3565 6.03081,-2.6165 8.37808,-2.6165 1.1129,0 3.02978,-0.31403 4.25974,-0.69785 1.22996,-0.38382 3.66504,-0.8029 5.41129,-0.93129 2.87708,-0.21153 3.40672,-0.36975 5.64444,-1.68618 3.20103,-1.88313 7.52103,-3.26764 12.26032,-3.92929 3.79191,-0.52938 5.87099,-0.41405 9.43552,0.52343 0.67909,0.17861 2.26659,0.58011 3.52777,0.89222 2.34395,0.58007 4.24936,1.64057 6.231549,3.46832 0.85668,0.78992 1.48517,1.0417 2.7026,1.08268 0.87249,0.0294 1.87829,0.29823 2.23512,0.59747 0.92123,0.77253 2.25126,1.2923 4.84781,1.89448 2.38385,0.55285 4.44295,1.5403 5.77371,2.76881 1.26253,1.16553 2.80031,3.82885 3.0594,5.29867 0.13675,0.7758 0.73013,1.89434 1.40362,2.64583 1.58267,1.76602 2.18343,3.07266 2.43451,5.29509 0.11661,1.0321 0.78946,3.17523 1.49523,4.7625 1.88458,4.23839 2.00865,5.30224 0.45432,3.89559 -0.4978,-0.4505 -0.74848,-0.4866 -1.13742,-0.1638 -0.39855,0.33077 -0.42246,0.67762 -0.11887,1.72438 0.69634,2.40094 1.03651,2.49012 3.42045,0.89669 2.9108,-1.94558 3.83578,-0.36322 1.24103,2.12299 -1.70351,1.63225 -1.86588,2.03018 -1.09083,2.6734 0.27317,0.22671 0.75686,0.96053 1.07488,1.6307 0.63828,1.34507 0.94854,1.47845 1.60345,0.68933 0.24154,-0.29104 0.72241,-0.52917 1.0686,-0.52917 0.54293,0 0.66451,0.46771 0.88459,3.40324 0.37237,4.96669 0.0209,7.738909 -1.36657,10.778304 -0.6466,1.41647 -1.43999,2.793277 -1.76308,3.059568 -1.06607,0.878667 -0.71348,2.027308 1.00007,3.257881 1.31501,0.944372 1.5875,1.334431 1.5875,2.272482 0,0.90533 0.30066,1.377551 1.4993,2.354795 0.82462,0.672306 1.89618,1.427099 2.38125,1.677313 0.48507,0.250219 1.94504,1.306774 3.24438,2.347902 1.29933,1.041128 2.5589,1.89296 2.79903,1.89296 0.24014,0 1.08204,0.299307 1.87091,0.66513 0.78886,0.36582 2.30742,0.940908 3.37457,1.277973 1.06715,0.337069 3.1309,1.022657 4.58611,1.523534 1.67341,0.575984 3.35894,0.901129 4.58611,0.884679 1.55021,-0.02078 2.22397,0.165202 3.35139,0.925114 2.02638,1.365832 7.78287,4.601347 8.18652,4.601347 0.18792,0 1.20096,0.612641 2.25119,1.361426 2.42907,1.731853 3.96731,2.519129 4.92207,2.519129 0.43051,0 1.41711,0.681733 2.29741,1.5875 1.48217,1.525038 1.62415,1.5875 3.60833,1.5875 h 2.06544 l 0.32897,1.844178 c 0.28889,1.619567 0.50829,1.963942 1.80139,2.827492 0.92206,0.615763 1.55283,1.343971 1.68751,1.948184 0.1183,0.530676 0.84781,1.591109 1.62114,2.35651 2.70592,2.678186 6.32391,10.17912 6.33523,13.134448 0.006,1.681995 1.06761,4.70541 3.01169,8.580854 0.438,0.873125 1.11377005,2.619375 1.50173005,3.880555 0.38796,1.261181 1.09951,3.086805 1.58122995,4.056944 0.48172,0.970139 1.21703,3.340682 1.63401,5.267875 0.41699,1.92719 1.07318,4.216157 1.45821,5.086587 0.38504,0.870429 0.86169,2.7067611 1.05924,4.0807351 0.19755,1.373974 0.52,3.533069 0.71657,4.797989 0.19656,1.26492 0.42704,4.888657 0.51218,8.052745 0.0851,3.164092 0.24335,5.8961869 0.3516,6.0713269 0.48269,0.781022 0.79251,6.026591 0.50931,8.623296 -0.16929,1.552222 -0.39546,3.933472 -0.50261,5.291666 1.148675,10.27014 1.2873658,9.356913 -3.3605,24.341666 -0.73187,2.32833 -1.53351,5.10646 -1.78143,6.17361 -0.24791,1.06715 -1.07139995,3.4484 -1.82995995,5.29166 -0.75857,1.84327 -1.52948005,3.84373 -1.71313005,4.44549 -0.18365,0.60175 -1.26521,2.82425 -2.40346,4.93889 -1.13825,2.11463 -2.25805,4.43158 -2.48845,5.14876 -0.59915,1.86505 -2.23834,5.16284 -3.70884,7.4616 -0.69588,1.08784 -1.41459,2.37071 -1.59713,2.85082 -0.18253,0.48011 -0.7108,1.47595 -1.17392,2.21299 -1.35554,2.15727 -2.31409,5.14065 -2.75412,8.5718 -0.31178,2.43108 -0.56198,3.282612 -1.03963,3.538242 -0.34597,0.18516 -0.74017,0.84267 -0.87601,1.46114 -0.13584,0.61847 -0.81654,1.66166 -1.51268,2.3182 -1.16197,1.09588 -1.27766,1.38702 -1.41172,3.55275 -0.0931,1.50431 -0.32235,2.46126 -0.63267,2.64116 -0.65198,0.37796 -0.62148,1.98134 0.0425,2.23614 0.41221,0.15818 0.52917,0.85749 0.52917,3.16393 0,2.52251 0.10796,3.06883 0.72921,3.69008 0.66164,0.66164 0.71247,1.02937 0.54861,3.96875 -0.22144,3.97218 -0.54144,6.94573 -0.8232,7.64926 -0.11656,0.29104 -0.24867,1.00542 -0.29359,1.5875 -0.57611,7.46567 -0.95311,10.41992 -1.58737,12.43872 -0.41332,1.31553 -0.89146,4.19049 -1.07021,6.43489 -0.42131,5.29011 -0.79474,7.58026 -1.34395,8.24201 -0.6347,0.76477 -1.42579,4.79738 -1.6704,8.51494 -0.11491,1.74625 -0.50946,4.39207 -0.87679,5.8796 -0.36732,1.48754 -0.66787,3.48926 -0.66787,4.44826 0,1.23853 -0.2918,2.29457 -1.00727,3.64539 -0.93819,1.77132 -1.02193,2.26468 -1.22098,7.19341 -0.35803,8.86548 -2.57511,19.68154 -5.38728,26.28194 -0.70268,1.64924 -1.58719,3.7772 -1.96557,4.72878 -0.37838,0.95158 -1.37442,2.53908 -2.21342,3.52778 -0.83899,0.98869 -2.05061,2.67074 -2.69248,3.73789 -0.64187,1.06715 -1.53003,2.384 -1.97368,2.92633 -0.44365,0.54232 -0.99081,1.60076 -1.21591,2.35207 -0.24041,0.80239 -0.58309,1.29939 -0.83051,1.20445 -0.23167,-0.0889 -0.83077,-0.006 -1.33133,0.18437 -1.14643,0.43589 -1.61694,2.17776 -0.89491,3.31307 0.412,0.64784 0.41815,0.9283 0.0364,1.66137 -0.25262,0.48507 -0.46744,1.12007 -0.47738,1.41112 -0.0193,0.56515 -1.83271,1.80685 -4.84403,3.31695 -1.30587,0.65486 -2.39973,0.92753 -3.70417,0.92333 -5.07609,-0.0162 -9.0819,0.20736 -9.36475,0.52306 -0.17341,0.19357 -0.51198,1.54256 -0.75238,2.99777 -0.24041,1.4552 -0.57257,3.3602 -0.73814,4.23333 -0.16558,0.87312 -0.39987,2.99399 -0.52066,4.713 -0.31138,4.43149 -1.52866,7.70224 -3.64377,9.7905 -0.90641,0.8949 -2.71439,2.89642 -4.01771,4.44783 -2.83682,3.37679 -5.73939,5.03756 -8.80417,5.03756 -1.06102,0 -2.81959,0.37765 -4.30569,0.92459 -1.55604,0.5727 -3.63934,1.00909 -5.4739,1.14653 -2.1232,0.1591 -3.03252,0.37176 -3.21165,0.7511 -1.19888,2.5388 -4.357589,8.85754 -4.850399,9.7028 -2.08074,3.56895 -2.81619,4.08171 -7.09887,4.94951 -2.38256,0.48277 -3.0914,0.51001 -3.9554,0.15215 -0.63898,-0.26469 -1.74091,-0.35451 -2.80404,-0.2286 -2.72576,0.32283 -4.55834,-0.40778 -6.81138,-2.71547 -1.8865,-1.93227 -2.87884,-2.37053 -3.64125,-1.60814 -0.26413,0.26416 -0.69401,0.055 -1.45877,-0.70979 -0.59635,-0.59633 -1.61052,-1.17221 -2.25371,-1.27966 -0.64318,-0.10746 -1.51199,-0.26367 -1.93069,-0.3471 -1.04076,-0.20744 -6.29523,-4.145 -7.0322,-5.26973 -0.82125,-1.25338 -0.21959,-2.64597 1.14319,-2.64597 1.38558,0 5.40378,1.78008 9.84925,4.36326 2.1368,1.24164 3.70719,1.79987 10.0302,3.56549 1.84326,0.5147 3.87271,1.16381 4.50988,1.44244 0.63718,0.27862 1.45719,0.50659 1.82225,0.50659 1.03752,0 6.68345,-6.85617 7.19774,-8.7406 0.76281,-2.7951 2.96241,-10.3826 3.75568,-12.95524 2.168059,-7.03114 2.799959,-10.21111 3.259729,-16.40416 0.54889,-7.39359 0.51615,-10.07541 -0.17868,-14.64028 -0.72058,-4.73403 -1.599299,-9.30257 -1.875069,-9.7488 -0.22227,-0.35966 -0.62068,-2.76271 -1.3666,-8.24286 -0.26409,-1.94028 -0.71217,-4.63903 -0.99573,-5.99723 -0.28357,-1.35819 -0.62475,-3.73944 -0.7582,-5.29166 -0.13344,-1.55223 -0.40286,-3.5366 -0.59869,-4.40973 -0.19584,-0.87312 -0.74035,-3.88937 -1.21002,-6.70277 -0.46968,-2.81341 -1.01541,-5.90903 -1.21274,-6.87917 -0.19733,-0.97014 -0.59706,-2.9923 -0.8883,-4.49365 -1.31218,-6.76442 -3.62989,-14.38779 -4.94521,-16.26567 -0.28535,-0.4074 -0.51882,-1.08016 -0.51882,-1.49503 0,-1.00131 -2.98504,-7.33526 -5.77297,-12.24965 -1.23208,-2.17183 -2.35126,-4.30081 -2.48706,-4.73107 -0.1358,-0.43027 -0.94662,-1.73278 -1.80182,-2.89449 -0.85519,-1.1617 -2.11813,-3.2306 -2.80651,-4.59756 -0.68839,-1.36696 -1.4116,-2.48538 -1.60714,-2.48538 -0.19553,0 -0.0632,0.59532 0.29399,1.32292 0.73006,1.48699 0.99896,2.36918 2.55385,8.37847 1.87585,7.24974 2.71895,10.11073 4.05439,13.75833 1.29225,3.52962 2.59966,8.24916 2.62233,9.46621 0.0135,0.72538 -0.66915,0.63956 -1.10246,-0.13859 -0.65893,-1.18332 -2.41327,-5.0672 -2.41327,-5.34266 0,-0.28147 -3.27394,-7.03238 -4.15665,-8.57107 -0.61719,-1.07584 -6.0739,-12.46922 -6.0739,-12.68204 0,-0.48283 -4.13406,-7.64525 -5.40626,-9.36657 -3.53228,-4.77925 -8.4346,-9.78546 -12.72621,-12.99594 -2.23945,-1.67529 -3.0342,-2.10572 -3.0342,-1.64332 0,0.0976 1.21122,1.32788 2.6916,2.73402 2.98625,2.83651 6.27166,6.74836 7.92663,9.43804 0.59618,0.9689 1.21164,1.76165 1.3677,1.76165 0.15607,0 1.47898,2.42094 2.93982,5.37986 1.98065,4.0118 2.84717,6.23209 3.4076,8.73125 1.10265,4.91713 1.77427,7.65459 2.51,10.23055 0.36021,1.26118 0.89702,3.95993 1.19292,5.99723 0.29589,2.03729 0.62688,4.10104 0.73554,4.58611 0.47066,2.10115 0.59951,4.93888 0.22425,4.93888 -0.59808,0 -1.72804,-2.87844 -2.12113,-5.40334 -0.19544,-1.25534 -0.77459,-3.29157 -1.287,-4.52496 -1.40532,-3.38268 -2.53152,-6.8826 -3.16217,-9.82725 -1.02259,-4.77466 -5.0587,-13.1917 -7.95067,-16.58055 -0.80537,-0.94376 -0.8272,-1.01966 0.60853,2.11666 2.78143,6.07603 5.05542,11.85587 6.52335,16.58056 2.64512,8.51356 2.7563,9.01748 2.9321,13.28977 l 0.1717,4.17273 -0.7168,-1.54389 c -0.39423,-0.84914 -0.80754,-1.96039 -0.91845,-2.46945 -1.23594,-5.67291 -8.5023,-22.57626 -11.81515,-27.48497 -0.5782,-0.85673 -1.44352,-2.33177 -1.92295,-3.27787 -1.1258,-2.22167 -3.67714,-6.1139 -6.34095,-9.67351 -3.80019,-5.07817 -4.41762,-6.54967 -3.17937,-7.57732 0.45798,-0.3801 0.45798,-0.55115 0,-1.43679 -0.28593,-0.55293 -0.51996,-1.6879 -0.52005,-2.52215 -1e-4,-0.83426 -0.3416,-2.38995 -0.75889,-3.45711 -0.70589,-1.8052 -0.75529,-2.51742 -0.70957,-10.23055 0.027,-4.55965 0.19787,-9.084032 0.37964,-10.054172 0.18177,-0.97014 0.42439,-3.54635 0.53915,-5.72491 0.11476,-2.17856 0.37887,-4.40106 0.58691,-4.93889 0.20804,-0.53782 0.50709,-2.08911 0.66457,-3.44731 0.80531,-6.94585 2.24861,-13.43562 3.58714,-16.12952 0.55159,-1.11013 1.00289,-2.56625 1.00289,-3.23584 0,-1.07984 0.14033,-1.26373 1.24168,-1.62721 0.68292,-0.22538 1.83386,-0.37426 2.55764,-0.33083 0.72378,0.0434 1.74492,0.0568 2.26921,0.0297 l 0.95324,-0.0493 -0.87776,-1.69185 c -0.85721,-1.65224 -0.8657,-1.74357 -0.36252,-3.90052 0.28339,-1.21477 0.70542,-2.43781 0.93786,-2.71787 0.7371,-0.88816 -0.23884,-0.59835 -2.9436,0.87411 -1.39757,0.76083 -3.5087,1.69667 -4.69141,2.07966 -1.18271,0.38298 -2.45271,0.86327 -2.82222,1.0673 -0.36951,0.20403 -1.48661,0.62412 -2.48243,0.93353 -0.99583,0.3094 -2.09304,0.87465 -2.43825,1.2561 -0.60379,0.66719 -0.59532,0.75698 0.2231,2.36239 0.67017,1.31463 1.03793,1.66974 1.73268,1.67313 0.86483,0.004 0.88288,0.0605 0.93,2.89971 0.0264,1.59248 -0.1814,3.97373 -0.46183,5.29167 -0.28043,1.31794 -0.64437,3.34875 -0.80874,4.51291 -0.16437,1.16417 -0.4688,3.24563 -0.6765,4.62547 -0.2077,1.37984 -0.46975,4.55484 -0.58233,7.05556 -0.11259,2.50071 -0.34732,5.18175 -0.52163,5.95786 -0.17432,0.77611 -0.39134,2.69381 -0.48228,4.26156 -0.20953,3.612112 -1.10336,6.498162 -2.01254,6.498162 -0.35975,0 -1.26565,0.31877 -2.01311,0.70837 -1.17676,0.61336 -1.60884,0.66098 -3.22184,0.35508 -1.02455,-0.1943 -2.2601,-0.25356 -2.74566,-0.1317 -1.62376,0.40755 -4.81922,-0.6471 -10.62563,-3.50692 l -5.75959,-2.836772 -1.07404,0.63445 c -0.90459,0.53436 -1.97168,0.64124 -6.76401,0.6775 l -5.68999,0.0431 -3.04143,-1.49452 c -4.282,-2.10412 -6.83841,-5.12913 -5.59782,-6.62395 0.59159,-0.71282 1.63829,-0.65922 2.76396,0.14152 1.31912,0.93835 5.16711,2.76629 6.3876,3.03436 2.21354,0.48617 11.4189,0.49506 12.57469,0.0121 1.0385,-0.43391 1.46977,-0.35229 5.64427,1.06824 4.29792,1.46253 4.78047,1.54927 9.82762,1.76669 3.09603,0.13337 5.78232,0.42501 6.4466,0.69989 0.62636,0.25919 1.21586,0.34659 1.31003,0.19424 0.29046,-0.46998 0.55879,-2.81903 0.93066,-8.14721 0.19636,-2.81341 0.50759,-6.46466 0.69163,-8.11389 0.18404,-1.64924 0.45906,-4.13149 0.61116,-5.51613 0.1521,-1.38463 0.15844,-4.24204 0.0141,-6.34979 -0.23704,-3.46146 -0.38897,-4.07824 -1.57004,-6.37411 -1.50025,-2.91631 -2.00636,-3.48447 -4.81772,-5.40835 -2.29229,-1.56866 -2.86979,-1.72617 -2.54197,-0.69329 0.54922,1.73045 -1.92218,0.35183 -5.46806,-3.05024 -2.43125,-2.33263 -4.11385,-2.94698 -8.07133,-2.94698 -2.56786,0 -3.5675,0.1873 -6.39384,1.19795 -1.84257,0.65887 -4.26746,1.61137 -5.38865,2.11667 -1.12119,0.50529 -2.47057,0.92241 -2.99861,0.92692 -1.98522,0.017 -9.63319,5.27223 -15.38998,10.57513 -6.31532,5.81739 -7.07899,6.92115 -6.20609,8.96985 0.61441,1.44204 0.87101,4.76263 0.40411,5.22953 -0.48695,0.48695 -1.90905,-0.40806 -3.75701,-2.36451 -1.28648,-1.36201 -1.61161,-1.51661 -3.68132,-1.75044 -1.98441,-0.22419 -8.03051,-2.26459 -9.01869,-3.04357 -0.44724,-0.35256 -7.87335,-2.24144 -11.81804,-3.00599 -1.64924,-0.31966 -4.82424,-1.11562 -7.05555,-1.7688 -3.81266,-1.1161 -5.37296,-1.34974 -11.46528,-1.71681 -1.3582,-0.0818 -3.02402,-0.31827 -3.70184,-0.52541 -0.67782,-0.20715 -2.74157,-0.37727 -4.58611,-0.37805 -1.84454,-7e-4 -4.80497,-0.2368 -6.57873,-0.52448 -3.35022,-0.54337 -8.10573,-0.33437 -11.93912,0.52471 -0.92853,0.20809 -3.03773,0.38335 -4.68713,0.38947 -1.84621,0.007 -3.28554,0.18942 -3.74465,0.47498 -0.41016,0.25512 -1.5848,0.55531 -2.6103,0.6671 -1.0255,0.11178 -2.2955,0.49561 -2.82222,0.85295 -0.52672,0.35733 -1.36958,0.82576 -1.87302,1.04095 -1.01175,0.43244 -3.06203,3.29141 -3.35801,4.68248 -0.10405,0.489 -0.48286,1.76222 -0.84181,2.82937 -0.35895,1.06715 -0.74589,3.10026 -0.85987,4.51801 -0.1937,2.40941 -1.02752,5.99838 -1.92741,8.29615 -0.21456,0.54786 -0.47869,1.73849 -0.58696,2.64584 -0.16702,1.39979 -0.0199,1.99434 0.97128,3.92446 1.51442,2.94907 2.18998,3.366032 3.22071,1.98782 1.43901,-1.92415 5.05934,-5.34901 7.05344,-6.67261 1.09313,-0.72558 2.73642,-2.18671 3.65177,-3.24695 1.80257,-2.08792 3.05918,-2.51649 3.48107,-1.18724 0.26148,0.82388 8.1e-4,0.84214 5.27004,-0.36926 2.59744,-0.59715 3.9881,-0.70025 7.76111,-0.57539 5.11256,0.16919 8.04539,0.43042 10.41748,0.92789 0.87313,0.18311 3.53409,0.57974 5.91327,0.8814 2.37917,0.30166 5.39542,0.76223 6.70277,1.02351 2.63923,0.52744 9.20531,2.23718 9.65208,2.5133 0.15732,0.0972 2.31542,0.71397 4.79577,1.37054 5.46731,1.44723 9.02016,2.73341 13.68194,4.95303 1.94028,0.92383 5.11528,2.351612 7.05556,3.172862 1.94027,0.82124 5.43277,2.298 7.76111,3.28168 2.32833,0.98368 5.66208,2.53041 7.40833,3.43719 1.74625,0.90677 3.65125,1.78064 4.23333,1.94192 6.13153,1.69892 11.57002,3.70027 15.52222,5.71214 4.51519,2.29846 8.67623,4.17192 10.40695,4.68562 0.48507,0.14397 1.75507,0.69553 2.82222,1.22569 1.06715,0.53015 2.57528,1.07867 3.35139,1.21892 0.77611,0.14025 2.76048,1.00825 4.40972,1.92888 2.94738,1.64528 4.23333,2.25108 4.23333,1.99425 0,-0.0714 -0.55562,-0.95552 -1.23472,-1.96465 -0.6791,-1.00914 -1.23472,-2.04544 -1.23472,-2.3029 0,-0.78156 1.78758,-1.93043 3.00366,-1.93043 0.91854,0 1.73265,0.51409 4.12172,2.60276 2.90634,2.54089 4.7054,4.65147 6.77065,7.943 1.32864,2.11756 2.00109,5.87181 1.90237,10.6209 -0.0599,2.88388 0.0516,3.93854 0.5037,4.7625 0.60331,1.09957 1.22559,3.45727 1.57209,5.95633 0.11072,0.7986 0.47603,2.16638 0.81178,3.0395 0.33575,0.87313 0.79978,2.8575 1.03116,4.40973 0.23139,1.55222 0.64121,3.93347 0.91072,5.29166 0.26952,1.3582 0.82046,4.8507 1.22432,7.76111 0.40386,2.91042 0.89143,6.32355 1.08347,7.58473 0.19205,1.26118 0.59488,4.0393 0.89518,6.17361 0.3003,2.1343 0.78367,4.9918 1.07416,6.35 0.39207,1.83321 0.44893,3.0855 0.22068,4.86053 -0.24364,1.89477 -0.20148,2.5424 0.20307,3.12 0.2808,0.4009 0.54272,1.22989 0.58204,1.84225 0.10065,1.56689 0.53349,3.66804 1.1357,5.51303 0.32717,1.00231 0.43477,2.16009 0.29512,3.17546 -0.12088,0.87887 -0.0433,3.64783 0.1725,6.15322 0.21575,2.50539 0.39963,6.15646 0.40862,8.11343 0.009,1.957 0.21934,4.51069 0.46745,5.67485 0.51145,2.39977 1.05917,5.78207 1.58759,9.80384 0.22194,1.68924 0.62778,3.11665 1.05315,3.70416 1.70677,2.35744 3.49576,9.91151 3.01758,12.74181 -0.15727,0.93087 0.0126,2.07387 0.56,3.76826 0.73916,2.28794 0.76029,2.63099 0.35643,5.78619 -0.23613,1.84475 -0.4988,4.6083 -0.58372,6.14123 -0.25779,4.65349 -1.90368,6.75128 -3.92969,5.0086 l -0.95474,-0.82127 0.44098,-4.27881 c 0.61378,-5.95559 0.23248,-15.13758 -0.86247,-20.76866 -0.94944,-4.88272 -2.67052,-9.70572 -3.90346,-10.93868 -0.68688,-0.68686 -0.83014,-1.19479 -0.83014,-2.94316 0,-1.35516 0.20532,-2.4264 0.57243,-2.98672 0.39171,-0.59782 0.4999,-1.23433 0.34268,-2.01605 -0.12636,-0.62834 -0.31998,-3.44428 -0.43025,-6.25768 -0.11026,-2.8134 -0.26136,-5.21413 -0.33575,-5.33499 -0.0744,-0.12083 -0.23255,-1.54958 -0.35145,-3.175 -0.1189,-1.62539 -0.35355,-3.51091 -0.52145,-4.19001 -0.1679,-0.6791 -0.41268,-2.34597 -0.54395,-3.70417 -0.29367,-3.0384 -0.50066,-3.45849 -2.07136,-4.20384 -0.68575,-0.32544 -2.15968,-1.18367 -3.27539,-1.90726 -1.11571,-0.72358 -2.82232,-1.67848 -3.79246,-2.12199 -0.97014,-0.44351 -2.00201,-0.95328 -2.29305,-1.13284 -0.29105,-0.17956 -1.00449,-0.59076 -1.58543,-0.91373 -0.58095,-0.323 -1.86537,-1.19814 -2.85428,-1.94476 -0.98891,-0.74665 -1.92984,-1.35752 -2.09096,-1.35752 -0.16112,0 -0.54357,-0.22119 -0.84989,-0.49156 -0.9069,-0.80042 -5.97504,-3.38868 -6.64344,-3.39277 -0.33896,-0.004 -1.38663,-0.71417 -2.32817,-1.58246 -0.94153,-0.86829 -2.62506,-2.17628 -3.74117,-2.90667 -1.93683,-1.26743 -2.71252,-1.75296 -7.59058,-4.75118 -1.16919,-0.71864 -2.67562,-1.55815 -3.34762,-1.86556 -0.67199,-0.30741 -1.52003,-0.82882 -1.88453,-1.15869 -0.3645,-0.32986 -1.33796,-0.9985 -2.16324,-1.48585 -2.31755,-1.36858 -3.53236,-2.12784 -7.0232,-4.38954 -1.77619,-1.15079 -4.17032,-2.55222 -5.32028,-3.1143 -1.14997,-0.56208 -2.73747,-1.5382 -3.52778,-2.16915 -0.79031,-0.63097 -2.28289,-1.57917 -3.31684,-2.10713 -1.03395,-0.52795 -2.52621,-1.4281 -3.31613,-2.00031 -1.63355,-1.18334 -2.0359,-1.27771 -2.0359,-0.47748 0,0.86751 1.05217,2.16315 5.00379,6.16162 3.74,3.78435 8.389,9.75706 10.44969,13.42505 4.86023,1.49392 3.34389,6.92398 5.45227,10.10387 0.87103,1.30817 2.2065,3.56912 2.96772,5.02433 1.55533,2.97325 3.92714,6.92048 6.67727,11.1125 1.82464,2.7813 4.02065,7.03897 4.0212,7.79639 1.5e-4,0.21339 0.44278,1.00714 0.98362,1.76389 1.38469,1.93735 4.87182,7.60613 5.12355,8.32897 0.4585,1.31657 2.97136,4.10108 4.38824,4.86266 0.82462,0.44323 1.49931,0.93698 1.49931,1.09721 0,0.53502 1.54994,1.12942 3.49742,1.34126 1.81102,0.19695 1.94512,0.27834 2.22156,1.348 0.16181,0.62611 0.6081,1.3064 0.99177,1.51172 0.87184,0.46658 0.91367,1.40684 0.0626,1.40684 -0.81688,0 -1.48166,0.67003 -1.48166,1.49338 0,1.08677 1.77442,4.23005 3.42726,6.0712 1.50181,1.67294 5.73661,9.59792 5.75226,10.76477 0.004,0.29933 0.55822,2.13176 1.23156,4.07204 0.67335,1.94028 1.22885,3.7659 1.23446,4.05695 0.006,0.29104 0.88014,1.70194 1.94343,3.13531 2.16753,2.92199 2.47953,4.37585 1.18912,5.54125 -0.40927,0.36964 -1.21684,1.60768 -1.79459,2.75125 -1.01138,2.00191 -1.03048,2.12654 -0.51335,3.35139 0.2954,0.6997 0.71427,1.85497 0.9308,2.56723 0.21654,0.71229 0.83224,1.90292 1.36823,2.64583 0.53598,0.74295 1.57538,2.54141 2.30977,3.99662 0.73439,1.45521 2.23875,3.91584 3.34303,5.46806 1.10427,1.55222 2.6094,3.71517 3.34474,4.80656 1.74829,2.59479 3.09269,7.08208 3.16518,10.56457 0.0433,2.08181 0.20018,2.81569 0.71093,3.32637 1.30928,1.30909 -0.4032,5.76577 -2.5205,6.55952 -0.52638,0.19734 -1.51268,0.73099 -2.19178,1.18593 -0.6791,0.45491 -2.48849,1.25236 -4.02088,1.77214 -1.53239,0.51979 -3.19926,1.24905 -3.70417,1.62059 -0.5049,0.37158 -1.85993,1.0056 -3.01118,1.40896 -1.15124,0.4034 -2.67198,1.0287 -3.37941,1.38963 -1.65995,0.84684 -7.88541,2.46578 -9.50454,2.47167 -0.68786,0.004 -2.27221,0.32473 -3.52078,0.71606 -2.71835,0.85203 -6.02925,1.35231 -9.64308,1.45708 -2.38495,0.0691 -2.81256,-0.024 -4.13572,-0.89947 -0.81166,-0.53714 -1.73957,-1.47102 -2.06202,-2.07533 -1.29961,-2.43557 -1.85459,-2.73067 -5.13553,-2.73067 -1.6466,0 -3.07905,0.1379 -3.18321,0.30642 -0.10417,0.16856 -0.82335,0.40785 -1.59817,0.53174 -2.65029,0.42379 -7.24859,2.05215 -9.89575,3.50432 -2.47859,1.35968 -2.84652,1.45718 -5.82083,1.54256 -2.36999,0.068 -3.59879,-0.0691 -4.84646,-0.54088 z m 43.8284,-5.27488 c 1.45521,-0.20355 3.12208,-0.57121 3.70416,-0.81703 l 1.05834,-0.44697 -1.5875,-0.19639 c -1.14697,-0.14189 -9.82336,0.38753 -10.84792,0.66192 -0.0485,0.0131 -0.0882,0.35369 -0.0882,0.75706 0,0.69007 0.15117,0.7239 2.55764,0.57245 1.4067,-0.0885 3.74826,-0.32748 5.20347,-0.53104 z m -45.55333,-2.76976 c -0.26629,-0.3211 -0.99501,-0.79735 -1.61936,-1.05833 -1.34044,-0.56032 -1.51064,-0.57792 -1.51064,-0.15639 0,0.46284 2.17954,1.78562 2.95361,1.7926 0.57461,0.005 0.59756,-0.07 0.17639,-0.57788 z m 56.13666,-0.12174 c 0.29104,-0.1881 0.37042,-0.34199 0.17639,-0.34199 -0.19403,0 -0.5909,0.15389 -0.88194,0.34199 -0.29105,0.1881 -0.37042,0.34198 -0.17639,0.34198 0.19402,0 0.5909,-0.15388 0.88194,-0.34198 z m -40.67305,-2.55041 c 0.75039,0.11162 1.63946,-0.0967 2.64142,-0.61895 2.24275,-1.169 7.82832,-1.66254 12.03841,-1.06373 1.78148,0.25336 5.25852,0.52825 7.72676,0.61083 4.54867,0.15219 5.14225,0.0731 15.09146,-2.00998 0.87313,-0.18281 3.09563,-0.50486 4.93889,-0.71568 4.29957,-0.49177 6.47534,-0.94904 8.53206,-1.79314 0.9091,-0.37313 1.91112,-0.67839 2.22671,-0.67839 1.17499,0 4.2984,-1.76604 4.70615,-2.66093 0.9138,-2.00561 0.21467,-5.40745 -1.3489,-6.56343 -0.5605,-0.41441 -1.19449,-1.17694 -1.40889,-1.69453 -0.43268,-1.04458 -2.02492,-2.13389 -3.11912,-2.13389 -0.39054,0 -1.45792,0.32057 -2.37196,0.71237 -0.91404,0.39179 -2.63376,0.93553 -3.8216,1.20826 -1.18785,0.27277 -3.4479,0.89327 -5.02234,1.37891 -3.84714,1.18663 -7.44422,1.64574 -13.02736,1.66271 -4.3101,0.013 -4.98765,-0.0801 -9.01434,-1.23931 -2.39467,-0.68943 -4.80461,-1.25349 -5.35541,-1.25349 -2.80602,0 -9.5272,-2.65483 -13.48472,-5.32638 -2.85148,-1.92493 -5.20629,-2.6277 -10.01849,-2.98993 -1.87297,-0.14097 -4.09874,-0.55189 -5.11527,-0.94435 -0.98977,-0.38213 -2.78166,-1.0679 -3.98198,-1.52393 -1.20032,-0.456 -4.05782,-1.76742 -6.35,-2.91419 -4.1426,-2.07257 -11.96696,-5.35122 -12.77044,-5.35122 -0.2312,0 -1.72389,-0.56889 -3.31709,-1.26414 -7.65372,-3.34017 -9.52065,-4.37882 -13.30367,-7.40132 -2.57041,-2.05369 -4.98627,-3.32898 -6.30624,-3.32898 -1.49654,0 -3.14057,1.44261 -4.42238,3.88055 -0.66309,1.26118 -1.31225,2.92806 -1.44259,3.70417 -0.13033,0.77611 -0.54075,2.32456 -0.91204,3.44099 -0.37129,1.11644 -0.67508,2.53535 -0.67508,3.15317 0,1.03409 1.27504,3.452 1.82331,3.45761 0.12969,0 0.60017,0.59771 1.0455,1.32531 0.44533,0.7276 1.52984,1.95273 2.41002,2.72253 0.88018,0.76979 3.74346,3.48922 6.36283,6.04319 2.61938,2.55397 5.15938,4.84709 5.64445,5.09584 2.25525,1.08784 10.41337,7.5214 11.64166,6.33832 0,-0.19357 -1.30968,-1.22273 -2.91041,-2.28699 -3.61155,-2.40118 -7.20318,-4.98358 -8.77276,-6.3077 -0.65627,-0.55365 -2.30446,-1.79264 -3.66266,-2.75329 -2.88206,-2.03856 -5.63319,-5.1393 -8.25944,-9.30913 -1.45162,-2.30477 -1.8232,-3.17366 -1.65088,-3.86024 0.44548,-1.77493 1.53752,-1.11707 6.36573,3.83487 4.0794,4.18395 6.96597,6.60665 13.37447,11.22514 0.99648,0.71815 1.97054,1.31657 2.16457,1.32987 0.19402,0.0134 1.38465,0.88639 2.64583,1.94021 2.21503,1.85091 9.65195,6.55281 11.43921,7.23233 0.48054,0.1827 1.49313,0.72319 2.2502,1.20114 1.55502,0.98164 9.39149,3.76918 13.65086,4.85584 1.55223,0.39599 3.04504,0.90396 3.31738,1.12882 0.6549,0.54074 3.92219,0.81403 6.5604,0.54878 1.16417,-0.11705 2.62567,-0.13709 3.24778,-0.0445 z m -36.93805,-6.97459 c -0.29105,-0.1881 -0.68792,-0.34199 -0.88195,-0.34199 -0.19403,0 -0.11465,0.15389 0.17639,0.34199 0.29104,0.1881 0.68792,0.34198 0.88194,0.34198 0.19403,0 0.11466,-0.15388 -0.17638,-0.34198 z m 67.633,-14.07756 c 3.87669,-0.38139 8.56054,-1.19289 9.98166,-1.72936 0.48311,-0.18238 2.04911,-0.5281 3.48001,-0.76831 2.90197,-0.48712 5.62964,-1.55773 5.92416,-2.32523 0.10646,-0.27742 -0.92188,-2.76613 -2.28521,-5.53046 -1.36332,-2.7643 -2.59796,-5.50228 -2.74364,-6.08436 -0.40358,-1.61262 -1.52911,-4.03916 -2.78174,-5.99722 -0.62063,-0.97014 -1.63279,-2.54826 -2.24925,-3.5069 -0.61646,-0.95867 -1.2885,-2.30804 -1.49341,-2.99861 -0.3885,-1.30926 -0.79643,-2.07934 -4.52492,-8.5423 -3.11255,-5.39528 -6.12616,-9.95493 -8.24106,-12.46886 -0.97937,-1.16416 -5.78735,-6.11244 -10.68438,-10.99615 -4.89703,-4.88371 -9.38658,-9.56684 -9.97677,-10.40694 -1.09484,-1.55844 -11.58567,-11.97526 -17.14215,-17.02125 -1.69204,-1.53659 -4.05684,-3.99665 -5.25512,-5.46682 -1.19828,-1.47017 -2.69462,-3.22259 -3.32521,-3.89428 -0.63059,-0.67169 -1.14653,-1.3505 -1.14653,-1.50844 0,-0.15794 -0.6029,-0.95829 -1.33978,-1.77857 -0.73687,-0.82031 -1.61453,-1.88831 -1.95036,-2.37338 -0.33582,-0.48507 -1.08542,-1.51694 -1.66579,-2.29305 -0.58035,-0.77611 -1.39173,-2.04611 -1.80305,-2.82223 -0.41131,-0.77611 -1.55912,-2.22789 -2.55068,-3.22615 -2.39791,-2.41416 -4.0959,-4.64922 -4.0959,-5.39143 0,-0.33207 -0.4089,-0.95934 -0.90868,-1.3939 -1.08687,-0.94501 -1.73983,-2.43885 -2.07141,-4.73901 -0.2657,-1.84307 0.12867,-2.71201 1.23082,-2.71201 0.77706,0 5.03348,4.59502 5.84967,6.31501 0.32625,0.68753 1.204,2.02279 1.95056,2.96725 0.74656,0.94445 1.35738,1.83271 1.35738,1.97386 0,0.14118 1.95506,2.23037 4.34459,4.64263 2.38953,2.41229 5.23376,5.5766 6.32052,7.03181 2.13886,2.86403 4.66252,5.60574 6.621,7.19314 0.67909,0.5504 3.47172,3.16558 6.20583,5.81145 5.25606,5.08645 10.30757,9.57319 10.7782,9.57319 0.15498,0 -0.43193,-1.38907 -1.30424,-3.08681 -0.87232,-1.69774 -2.31123,-4.83305 -3.1976,-6.96736 -0.88637,-2.13431 -2.22398,-5.07118 -2.97247,-6.52639 -0.74849,-1.45521 -2.35173,-4.70958 -3.56275,-7.23194 -1.21103,-2.52236 -3.04452,-6.04612 -4.07442,-7.83061 -1.0299,-1.78446 -1.87255,-3.33968 -1.87255,-3.45602 0,-0.47347 -3.36005,-5.99384 -4.61307,-7.57903 -0.73964,-0.93572 -2.02413,-2.91595 -2.85442,-4.4005 -0.83029,-1.48455 -1.75943,-2.96886 -2.06476,-3.29846 -0.30534,-0.3296 -1.56218,-1.86927 -2.79298,-3.42149 -1.2308,-1.55222 -3.21319,-3.93347 -4.40531,-5.29167 -1.19212,-1.35819 -2.63556,-3.16636 -3.20764,-4.01815 -0.57207,-0.85179 -1.59845,-1.90439 -2.28084,-2.33913 -9.97421,-6.35432 -9.11609,-5.61234 -21.68483,-18.74981 -5.1974,-5.43258 -6.05753,-6.64052 -5.77785,-8.11431 0.15634,-0.82379 1.90522,-1.0602 2.70526,-0.3657 0.61582,0.53459 3.1444,2.31905 6.407,4.52152 1.06715,0.7204 3.28965,2.60371 4.93888,4.18515 1.64924,1.58144 3.80343,3.40089 4.78709,4.04323 0.98366,0.64234 2.33303,1.63004 2.99861,2.19489 2.51039,2.13048 6.50143,4.35481 7.81368,4.35481 0.44595,0 2.55021,1.13038 4.67613,2.51196 5.02021,3.2625 7.12448,4.42508 7.4394,4.11017 0.53038,-0.53038 -4.5341,-5.98594 -7.78904,-8.3905 -2.18825,-1.61656 -6.41006,-6.09938 -8.49216,-9.01718 -2.42782,-3.40228 -3.43543,-5.87884 -3.23605,-7.95377 0.0918,-0.95552 0.2686,-1.83897 0.39287,-1.96324 0.49002,-0.49002 1.96174,0.64411 4.64925,3.58275 1.54638,1.6909 4.39911,4.77209 6.33939,6.8471 3.99017,4.26725 6.44139,7.12715 7.26239,8.47324 0.30779,0.50464 1.91814,2.34628 3.57856,4.09253 1.66042,1.74625 4.28898,4.68312 5.84126,6.52639 4.88777,5.80403 5.64054,6.36962 14.36223,10.79101 2.13431,1.08197 5.01972,2.70817 6.41203,3.61379 5.07818,3.30308 7.44356,4.93731 7.66513,5.29581 0.31113,0.50342 4.4468,2.99163 4.64424,2.79419 0.0876,-0.0876 -0.39543,-0.88557 -1.07331,-1.77337 -0.67788,-0.88779 -1.81447,-2.61924 -2.52575,-3.84766 -0.71128,-1.22842 -1.95341,-3.02725 -2.76029,-3.99739 -1.68619,-2.02737 -2.85519,-3.87369 -3.96833,-6.26756 -0.43003,-0.92479 -1.17249,-2.19479 -1.64991,-2.82222 -1.29849,-1.70647 -1.45171,-2.76221 -0.56453,-3.89007 0.88267,-1.12213 2.15956,-1.24458 3.06739,-0.29415 0.34711,0.3634 1.10736,0.90278 1.68944,1.19864 1.02725,0.52211 4.40972,3.71356 4.40972,4.16068 0,0.12211 0.33333,0.60348 0.74073,1.06973 0.90439,1.03505 2.85611,3.87502 4.66547,6.7888 0.74208,1.19505 1.95519,2.89527 2.69579,3.77826 0.74059,0.88299 1.9866,2.51917 2.76891,3.63595 2.00953,2.8687 6.40754,6.57667 7.80057,6.57667 0.7228,0 2.32146,-1.86893 3.45279,-4.03651 0.97727,-1.87241 0.70155,-4.30846 -0.80089,-7.07599 -0.73733,-1.3582 -1.82829,-3.09768 -2.42435,-3.86551 l -1.08374,-1.39606 -0.2177,-6.89422 c -0.23173,-7.33836 -0.62852,-9.47524 -2.95055,-15.89005 -0.52676,-1.4552 -1.23333,-3.51895 -1.57016,-4.58611 -0.33683,-1.06715 -0.78444,-2.25777 -0.99468,-2.64583 -0.21025,-0.38806 -0.80895,-1.56801 -1.33045,-2.62212 -0.5215,-1.05411 -1.22622,-2.32411 -1.56605,-2.82222 -0.33983,-0.49811 -0.89365,-1.35936 -1.2307,-1.91387 -0.41807,-0.68782 -1.55726,-1.44455 -3.58474,-2.38125 -1.63456,-0.75517 -3.20718,-1.37304 -3.4947,-1.37304 -0.28752,0 -0.83152,-0.30875 -1.20889,-0.68612 -0.37736,-0.37736 -1.44892,-0.92527 -2.38125,-1.21757 -2.52851,-0.79275 -7.2173,-2.78313 -8.22152,-3.49002 -0.48507,-0.34145 -1.47564,-0.71633 -2.20127,-0.83307 -0.72562,-0.11674 -1.71428,-0.60721 -2.19702,-1.08995 -1.03868,-1.03867 -2.64997,-1.93368 -4.59754,-2.55376 -0.77611,-0.24709 -1.65106,-0.65766 -1.94434,-0.91237 -0.29328,-0.25471 -2.02017,-0.96127 -3.83753,-1.57015 -1.81736,-0.60887 -3.87929,-1.35049 -4.58205,-1.64804 -0.70276,-0.29754 -1.754,-0.7401 -2.33608,-0.98346 -0.58208,-0.24336 -2.40771,-1.0851 -4.05694,-1.87054 -4.31142,-2.05327 -6.76227,-3.12534 -10.75972,-4.70657 -1.94028,-0.76749 -4.24216,-1.77338 -5.11528,-2.2353 -2.4688,-1.30611 -8.80467,-3.587222 -10.75972,-3.873842 -3.46424,-0.50787 -8.14828,-1.91277 -10.23056,-3.06849 -1.90169,-1.0555 -2.38538,-1.1709 -4.7625,-1.13625 -1.45521,0.0212 -3.67771,0.15269 -4.93889,0.29219 -2.43178,0.26897 -3.67916,0.0887 -9.34861,-1.35107 -3.17439,-0.80615 -4.11086,-0.88745 -9.34861,-0.81162 -5.53296,0.0801 -7.872,0.37849 -11.77037,1.50158 -0.94391,0.27193 -2.29329,0.49531 -2.99861,0.49639 -2.59257,0.004 -4.01432,0.6755 -6.22598,2.94065 -2.48686,2.547012 -4.4592,5.727412 -5.25984,8.481512 -0.33366,1.14777 -0.85233,2.11503 -1.24754,2.32654 -0.94427,0.50536 -2.77215,4.38604 -3.16076,6.71044 -0.17841,1.06715 -0.41967,3.6173 -0.53614,5.667 -0.20531,3.6133 -0.1841,3.7636 0.69714,4.93888 0.49989,0.6667 1.53815,2.16468 2.30725,3.32884 3.48498,5.27515 5.31513,7.49063 4.3713,5.29167 -0.90042,-2.09782 -0.98574,-2.8169 -0.39264,-3.30913 1.15872,-0.96165 4.15025,1.47342 5.76734,4.69454 0.68895,1.37233 1.35969,2.57452 1.49054,2.67153 0.48005,0.35594 2.4333,3.48615 2.67597,4.28842 0.13756,0.45477 0.69422,1.62061 1.23702,2.59075 0.5428,0.97014 1.48362,3.05938 2.0907,4.64275 0.60709,1.58338 1.56622,3.46076 2.13142,4.17196 0.56519,0.7112 1.2875,2.18706 1.60514,3.27968 0.70467,2.424 1.71137,4.32845 4.23141,8.00493 1.06058,1.54727 1.92832,2.94692 1.92832,3.11035 0,0.16342 0.37845,0.80247 0.841,1.42012 0.46255,0.61764 0.95423,1.49508 1.09261,1.94985 0.13839,0.45477 0.69478,1.48665 1.23643,2.29305 0.54164,0.80641 1.31528,2.05801 1.71921,2.78133 0.40392,0.72333 1.45345,2.19794 2.3323,3.27693 0.87884,1.07898 1.59789,2.17455 1.59789,2.43459 0,0.48416 1.15192,3.23516 2.67317,6.38398 0.47004,0.97289 0.85461,2.04312 0.85461,2.37825 0,0.33511 0.33105,0.8091 0.73566,1.05326 0.89388,0.53947 3.52038,4.33518 5.43795,7.85876 1.41819,2.60597 3.97798,6.86255 6.05681,10.0717 0.61485,0.94918 1.77488,2.8799 2.57784,4.29048 0.80295,1.41058 2.04614,3.29378 2.76263,4.1849 3.16815,3.94021 4.65411,5.93485 4.65411,6.2473 0,0.185 0.24742,0.54173 0.54981,0.79269 0.70172,0.58237 3.47644,4.22424 4.05399,5.32092 0.24202,0.45956 1.3694,1.83405 2.50531,3.05449 1.1359,1.2204 2.32834,2.64915 2.64986,3.175 1.6882,2.76101 2.51584,3.77003 3.71148,4.5248 0.93948,0.59309 1.41919,1.21299 1.67564,2.16534 0.24259,0.90093 0.87938,1.76911 1.96035,2.67268 0.88056,0.73608 1.98068,2.08256 2.44469,2.99216 0.46401,0.90964 2.05942,2.92386 3.54535,4.47608 1.48593,1.55222 3.30802,3.69535 4.0491,4.7625 0.74108,1.06715 2.11993,2.92386 3.06411,4.12602 0.94418,1.20216 2.23442,3.10716 2.86719,4.23333 3.47862,6.19107 5.16338,9.2154 5.66068,10.16148 0.30597,0.58208 1.37887,2.32833 2.38424,3.88056 1.00537,1.55222 1.94465,3.20015 2.0873,3.66204 0.14264,0.46189 0.79729,1.73189 1.45477,2.82222 0.65748,1.09033 1.19583,2.1753 1.19633,2.4111 0.001,0.69755 2.19711,2.99018 3.31304,3.45941 0.79472,0.33415 1.20909,0.90805 1.80102,2.49438 l 0.76882,2.0604 3.19491,1.32983 c 2.55961,1.06543 3.81621,1.37224 6.31943,1.54288 1.71848,0.11719 3.62826,0.36583 4.24394,0.55255 3.21306,0.97452 6.47581,1.05414 13.77331,0.33624 z M -216.895,290.2007 c 0.12335,-0.19956 -0.0669,-0.79248 -0.42282,-1.31752 -0.35591,-0.52504 -1.22196,-2.06586 -1.92458,-3.42406 -1.41382,-2.733 -3.08579,-4.04071 -5.17958,-4.05112 -0.64022,-0.004 -1.59821,-0.23033 -2.12885,-0.50476 -0.53065,-0.27439 -1.59433,-0.59841 -2.36374,-0.71998 -0.7694,-0.1216 -2.27204,-0.44436 -3.33919,-0.71723 -1.06715,-0.27288 -3.02809,-0.74849 -4.35765,-1.05692 -1.32955,-0.3084 -3.54378,-1.11743 -4.92052,-1.79783 -1.37674,-0.6804 -2.82654,-1.19048 -3.22177,-1.13351 -0.83223,0.11994 -2.19833,2.41212 -2.37451,3.98413 -0.10294,0.91849 0.0537,1.14258 1.18567,1.69584 0.71736,0.35062 2.22548,0.95941 3.35139,1.3528 1.12591,0.39341 2.52336,0.93309 3.10544,1.19926 2.0476,0.93631 4.4988,1.74251 17.85446,5.87234 3.09928,0.95836 4.41967,1.1308 4.73625,0.61856 z m -9.00876,-15.81132 c 0,-0.59126 -2.31871,-4.1208 -5.47434,-8.33303 -1.74428,-2.32834 -3.96337,-5.42396 -4.93131,-6.87917 -1.78616,-2.68535 -2.55084,-3.70992 -4.7638,-6.38281 -0.67909,-0.82024 -1.51,-1.90246 -1.84646,-2.40496 -3.64965,-5.45073 -6.3793,-8.66626 -7.11655,-8.38337 -0.26456,0.10153 -0.81568,-0.20031 -1.22472,-0.67074 -0.42202,-0.48535 -1.13111,-0.85534 -1.63932,-0.85534 -0.49258,0 -1.41268,-0.21604 -2.04467,-0.4801 -0.63199,-0.26409 -2.24039,-0.597 -3.57425,-0.73984 -1.33385,-0.14284 -3.15323,-0.48356 -4.04307,-0.75717 -0.88985,-0.27361 -2.60865,-0.7318 -3.81957,-1.01826 -1.21092,-0.28642 -3.15082,-0.92025 -4.3109,-1.40853 -2.22545,-0.9367 -3.86681,-1.11616 -4.9426,-0.54039 -0.95098,0.50895 -2.63027,5.00003 -2.33405,6.24216 0.13052,0.54737 0.3836,1.66504 0.56241,2.48369 0.17879,0.81869 0.66949,2.16807 1.09043,2.99861 0.8836,1.74343 7.55272,8.26097 10.50491,10.26619 1.09134,0.74126 2.30175,1.64419 2.6898,2.00653 0.85799,0.80105 7.88524,4.21827 8.68916,4.22536 0.31641,0.004 3.01516,0.77728 5.99723,1.72106 7.55389,2.39067 10.13985,3.14325 11.77195,3.42593 0.77611,0.13441 2.20486,0.53037 3.175,0.87994 0.97013,0.34956 2.15914,0.68544 2.64222,0.74644 1.07981,0.13631 1.34271,1.15619 0.52963,2.05465 -0.56707,0.6266 -0.53229,0.67363 0.76283,1.03198 0.74634,0.20648 1.59511,0.53181 1.88615,0.72291 0.65971,0.43321 1.76389,0.46337 1.76389,0.0483 z m 133.879149,-5.6587 c 0.97014,-0.17776 2.24014,-0.50641 2.82223,-0.73035 0.58208,-0.22398 1.80631,-0.54928 2.72052,-0.72291 2.05004,-0.3894 10.03056,-3.9949 11.15793,-5.04102 0.45413,-0.4214 1.53778,-1.78326 2.40811,-3.02634 l 1.58243,-2.26018 -0.0304,-6.38288 c -0.027,-5.66042 -0.6735,-13.245 -1.38601,-16.26065 -0.15674,-0.6634 -0.61507,-1.23377 -1.22825,-1.52848 -0.70391,-0.33832 -0.94532,-0.68453 -0.86092,-1.23473 0.0645,-0.42051 0.31195,-0.72488 0.54988,-0.67638 0.23792,0.0485 0.63103,0.12789 0.87356,0.17639 0.64985,0.12997 0.37632,-4.87214 -0.4645,-8.49453 -0.37511,-1.61604 -0.68202,-3.60264 -0.68202,-4.4147 0,-0.81202 -0.33275,-2.34731 -0.73945,-3.41171 -0.4067,-1.06444 -1.17437,-3.12593 -1.70594,-4.58114 -1.90376,-5.21162 -5.14416,-13.04096 -5.39983,-13.04682 -0.14327,-0.004 -0.18481,0.74811 -0.0923,1.66974 0.0925,0.92163 0.27212,6.26216 0.39916,11.86783 0.21577,9.52038 -0.0304,14.83938 -0.84279,18.20647 -0.28423,1.17814 -0.34836,0.73914 -0.79884,-5.46805 -1.01639,-14.00525 -1.91542,-19.93286 -3.18352,-20.99028 -0.34903,-0.29104 -1.37914,-2.19604 -2.28912,-4.23333 -3.99176,-8.93682 -4.64502,-10.46036 -4.86812,-11.35356 -0.13004,-0.52066 -0.55374,-1.04736 -0.94155,-1.17044 -1.00224,-0.3181 -1.2912,-1.028 -1.93964,-4.76532 -0.40067,-2.30934 -1.04844,-4.32404 -2.14738,-6.67891 -1.484249,-3.18051 -1.746929,-3.7054 -2.614409,-5.22413 -0.19394,-0.33955 -0.54207,-1.09361 -0.77361,-1.6757 l -0.42099,-1.05833 -0.13584,1.01243 c -0.0919,0.6853 0.387,2.09389 1.4823,4.35946 2.460299,5.08895 4.309569,10.94105 5.325599,16.85311 0.26677,1.55222 0.81587,4.40972 1.22024,6.35 0.40437,1.94028 0.81167,4.32153 0.90511,5.29166 0.30121,3.1272 0.49411,3.86345 1.80681,6.89607 l 1.29065,2.98171 -0.0434,5.51134 c -0.0335,4.24907 -0.17849,5.84885 -0.63313,6.98511 -0.50166,1.25377 -0.55083,2.1954 -0.32935,6.30675 0.38142,7.08018 0.20408,14.32507 -0.45507,18.59124 -0.20985,1.3582 -0.69036,5.02719 -1.0678,8.1533 -0.37745,3.1261 -0.87252,6.03186 -1.10017,6.45724 -0.6672,1.24665 -1.41909,3.99613 -1.42322,5.20436 -0.006,1.82188 0.32372,2.32522 1.36897,2.08837 0.50615,-0.11469 1.71402,-0.35398 2.68416,-0.53171 z m 45.13695,-68.91866 c 0.83201,-1.26979 0.94527,-3.63157 0.38902,-8.11209 -0.5636,-4.53969 -0.68052,-4.90358 -1.54819,-4.81845 -1.99511,0.19576 -2.45399,-0.82868 -1.43365,-3.20054 1.17033,-2.7205 0.83514,-4.56964 -1.14412,-6.31187 -0.85127,-0.74932 -1.77041,-1.7784 -2.04253,-2.28686 -0.78003,-1.45751 -1.27623,-1.13433 -1.15341,0.75122 0.06,0.92163 0.25634,1.9932 0.43624,2.38125 1.08629,2.34328 3.48442,9.16411 4.4652,12.7 0.60798,2.19192 0.89786,4.18532 0.93619,6.43795 0.0306,1.79465 0.17093,3.26309 0.31197,3.26319 0.14105,1.4e-4 0.49353,-0.36156 0.78328,-0.8038 z m -22.38278,-73.99426 c 1.82315,0.0456 3.36565,-0.26298 5.79856,-1.15993 1.86462,-0.68743 4.99806,-3.60419 5.82579,-5.42291 0.42504,-0.93391 0.91576,-1.93614 1.0905,-2.22718 2.48257,-4.13502 4.04691,-7.22076 5.11702,-10.09362 0.71464,-1.91858 1.41397,-3.64707 1.55406,-3.8411 0.14009,-0.19403 0.62392,-1.38465 1.07518,-2.64583 0.45126,-1.261182 0.93488,-2.451812 1.07471,-2.645842 0.39717,-0.55109 1.9556,-5.88604 3.67535,-12.58172 0.8639,-3.36353 1.90554,-7.068 2.31475,-8.23217 1.16101,-3.30299 2.81297,-10.02315 2.81297,-11.44314 0,-0.70623 0.3175,-1.90682 0.70555,-2.66797 0.38806,-0.76115 0.70552,-1.62815 0.70548,-1.92667 -5e-5,-0.29852 0.38692,-1.89214 0.85992,-3.54138 0.473,-1.64924 1.04607,-3.94104 1.27348,-5.09289 0.28924,-1.46504 0.71134,-2.39216 1.40485,-3.08566 0.54525,-0.54526 1.1026,-1.507836 1.23853,-2.139058 0.34102,-1.583499 1.08843,-2.961777 1.74216,-3.212634 0.30125,-0.115602 1.19236,-1.603276 1.98024,-3.305944 0.78788,-1.702667 2.03966,-4.365759 2.78174,-5.917981 0.74208,-1.552222 1.52998,-3.496567 1.7509,-4.320765 0.37277,-1.390717 1.52795,-2.911179 2.21178,-2.911179 0.1616,0 0.47652,0.400985 0.69983,0.891082 0.7524,1.651345 1.02479,1.282308 3.65214,-4.948026 0.90004,-2.134306 2.08302,-4.91243 2.62884,-6.173611 1.2671,-2.927801 1.31204,-3.11822 1.58187,-6.702777 0.12414,-1.6492359 0.29375,-3.3161109 0.37691,-3.7041669 0.0832,-0.388055 0.32812,-2.928055 0.54439,-5.644444 0.8484,-10.65628 0.75382,-10.087786 1.80883,-10.873186 1.36881,-1.0190091 2.42455,-0.4338461 3.61791,2.005281 0.88743,1.813838 0.92371,2.0683 0.5509,3.864087 -0.2195,1.057307 -0.78857,2.996195 -1.26462,4.308638 -1.48281,4.088091 -0.89305,4.823114 1.06252,1.324221 1.46425,-2.619826 1.95251,-4.84664 1.95251,-8.904851 0,-4.3052151 0.33538,-5.0919841 2.33011,-5.4662001 l 1.28904,-0.241822 -0.22989,-1.955976 c -0.12644,-1.075785 -0.62553,-3.17815 -1.10909,-4.671917 -0.89428,-2.762525 -1.66875,-6.205534 -2.28511,-10.158737 -0.51952,-3.33206 -1.71079,-6.450443 -3.12852,-8.189503 -1.43887,-1.764986 -2.09458,-2.801182 -4.47872,-7.077533 -0.91948,-1.649236 -2.13415,-3.67859 -2.69928,-4.509678 -0.56513,-0.831085 -1.33957,-2.216531 -1.72098,-3.078769 -0.44276,-1.000944 -1.23082,-1.939671 -2.17982,-2.596596 -0.81749,-0.565891 -1.87121,-1.442632 -2.34159,-1.948314 -0.47039,-0.505683 -1.04975,-0.91942 -1.28747,-0.91942 -0.23772,0 -1.28161,-0.572382 -2.31976,-1.271962 -1.03814,-0.699579 -2.68128,-1.669834 -3.65142,-2.156128 -0.97014,-0.48629 -2.26923,-1.263283 -2.88688,-1.72665 -0.61764,-0.463366 -1.29384,-0.842482 -1.50265,-0.842482 -0.20882,0 -1.7009,-0.714375 -3.31573,-1.5875 -1.61484,-0.873125 -3.14577,-1.5875 -3.40207,-1.5875 -0.2563,0 -1.48968,-0.483662 -2.74084,-1.074805 -1.25115,-0.591142 -3.2509,-1.314954 -4.44388,-1.608465 -1.19298,-0.293511 -2.79352,-0.772728 -3.55676,-1.064923 -0.76386,-0.292442 -2.68262,-0.554835 -4.26823,-0.583696 -3.47942,-0.06333 -4.59227,0.481157 -4.957,2.425294 -0.14798,0.788808 -1.03626,2.264855 -2.33317,3.877014 -2.39976,2.983067 -2.71551,3.241823 -3.13933,2.572695 -0.40029,-0.631984 -0.40694,-2.330291 -0.0101,-2.575563 0.66179,-0.409007 1.15092,-5.609396 0.80826,-8.593204 -0.36616,-3.18837 0.0413,-2.521561 -4.79008,-7.838235 -0.61712,-0.679098 -1.55349,-1.90941 -2.08083,-2.734028 -0.52733,-0.824618 -1.10395,-1.499306 -1.28136,-1.499306 -0.65997,0 -1.34034,1.053398 -1.55749,2.411413 -0.32213,2.014438 -2.51548,6.956858 -3.75428,8.459734 -0.58213,0.706229 -1.05842,1.477052 -1.05842,1.712937 0,0.235889 -0.91282,1.363987 -2.02848,2.506892 -2.67531,2.740646 -5.37986,7.816405 -5.37986,10.096679 0,1.99741 -0.8957,3.740722 -3.09979,6.033177 -1.98226,2.061729 -3.1977,2.998611 -3.89016,2.998611 -0.47089,0 -5.29487,4.741334 -9.013749,8.85933 -0.94391,1.045217 -2.0019,2.556569 -2.35108,3.358564 -0.34918,0.801991 -0.94461,1.675116 -1.32318,1.940277 -0.72946,0.510939 -7.71457,13.290642 -9.1799,16.795213 -0.25258,0.604108 -0.92727,1.687308 -1.4993,2.407113 -0.82405,1.03694 -1.04006,1.659043 -1.04006,2.99546 0,1.467016 0.15903,1.836716 1.22088,2.838277 1.61823,1.526357 1.87617,2.7875271 0.89488,4.3752981 -0.89861,1.45397 -2.03081,1.828849 -3.86434,1.279511 -2.67118,-0.800308 -2.78436,-0.516181 -0.63267,1.58823 2.15513,2.107759 2.42957,2.927544 1.44881,4.327772 -0.53488,0.763637 -0.74672,0.810479 -2.74118,0.606139 l -2.16151,-0.221453 -0.55911,1.148052 c -1.69191,3.47412 -1.77091,3.844932 -1.74418,8.185944 0.0144,2.3439009 0.18461,4.8138179 0.37817,5.4887069 0.19356,0.674892 0.35423,1.783746 0.35705,2.464124 0.003,0.680378 0.24249,1.918455 0.53258,2.751282 0.29009,0.832827 0.56559,3.014761 0.61222,4.848743 0.0907,3.567444 0.446,4.408703 0.70221,1.66272 0.086,-0.921632 0.47898,-2.86632 0.87331,-4.321528 0.39432,-1.455208 0.63817,-3.165807 0.54189,-3.801325 -0.41936,-2.768106 2.69022,-9.4687809 5.99754,-12.9237629 1.09763,-1.146644 2.59738,-2.954313 3.33277,-4.017041 0.73539,-1.062729 1.90152,-2.505816 2.59141,-3.206856 0.68989,-0.701044 1.70224,-1.947256 2.24967,-2.769362 0.86325,-1.296381 3.73935,-4.038861 5.04089,-4.806703 0.23705,-0.139848 0.85641,0.02445 1.37635,0.365146 l 0.94536,0.619418 -0.28118,-1.3985061 c -0.61406,-3.054188 -0.0122,-4.297465 2.738279,-5.65633 1.01515,-0.501537 2.48073,-1.539296 3.25685,-2.306125 2.06437,-2.039687 4.74256,-4.194546 5.22492,-4.203958 0.23074,-0.0045 1.00839,-0.520439 1.72812,-1.146527 0.71974,-0.626089 2.06186,-1.693969 2.9825,-2.373066 0.92064,-0.679097 3.26278,-2.780495 5.20475,-4.669776 1.94198,-1.88928 4.03697,-3.675217 4.65554,-3.968749 2.97882,-1.413546 4.18307,0.26453 2.57448,3.587435 -0.82737,1.709124 -5.03548,5.775113 -8.2592,7.980264 -1.16417,0.796336 -2.3548,1.708697 -2.64584,2.027463 -0.29104,0.31877 -1.64041,1.54475 -2.99861,2.7244 -1.99256,1.730629 -2.66279,2.58934 -3.47064,4.446715 l -1.0012,2.301896 0.93675,2.3414991 c 0.51521,1.287822 1.06176,3.002089 1.21457,3.809481 l 0.27782,1.467982 0.9376,-2.116666 c 0.51568,-1.164167 1.08755,-2.354792 1.27082,-2.645834 0.18327,-0.291041 0.75837,-1.243541 1.27801,-2.1166661 1.81197,-3.044582 3.03064,-3.843154 4.02904,-2.640161 0.65427,0.788349 0.14798,4.2579041 -0.8764,6.0058721 l -0.84716,1.445571 0.85942,2.956101 c 0.47269,1.625857 0.85943,3.480191 0.85943,4.120748 0,1.876238 0.46166,1.360155 1.51373,-1.692173 1.60286,-4.65032 2.47025,-5.437053 4.09164,-3.711162 0.73582,0.783248 0.76402,0.981026 0.415,2.910416 -1.32551,7.32736 -1.29238,6.940984 -0.89595,10.447606 0.41759,3.6938399 1.51068,3.9289599 2.05445,0.441903 0.4703,-3.015964 2.63704,-8.79851 3.61179,-9.639052 1.50693,-1.29945 2.04422,-0.452777 2.26211,3.564639 l 0.17639,3.252191 1.00688,0.115171 c 0.66556,0.07613 1.28322,-0.144434 1.82207,-0.650659 2.43338,-2.286043 4.05128,2.417744 2.975,8.6493769 -0.20106,1.164166 -0.5221,3.035613 -0.71341,4.15877 -0.19131,1.123159 -0.707,2.790034 -1.14598,3.704166 -0.68648,1.429502 -0.92959,1.648217 -1.7375,1.563102 -0.98271,-0.10353 -1.08345,0.09123 -1.87606,3.626739 -0.1305,0.582083 -0.60405,1.931458 -1.05235,2.998611 -1.15075,2.739316 -2.24519,6.582501 -2.44384,8.5817 -0.093,0.936396 -0.81104,3.166092 -1.59554,4.95488 -0.7845,1.788791 -1.57193,4.118275 -1.74984,5.176633 -0.17792,1.05836 -0.63201,2.80637 -1.0091,3.88447 -0.37708,1.0781 -0.80273,2.82435 -0.94586,3.88055 -0.14314,1.05621 -0.46439,2.31934 -0.71391,2.80697 -1.2621,2.46654 -0.92293,6.06056 0.9054,9.5941 1.23212,2.38126 1.28561,3.0596 0.3228,4.09306 -0.52302,0.5614 -1.13033,0.77208 -2.22563,0.77208 -2.5223,0 -2.8759,0.50651 -2.8759,4.1195 0,2.87315 -0.0558,3.12043 -0.72624,3.21633 -1.04709,0.14977 -2.43083,-1.07739 -4.6559,-4.12911 -2.96608,-4.068 -3.87746,-4.93816 -4.97621,-4.75113 -1.54394,0.26282 -2.59361,1.28487 -3.04669,2.96653 -0.64814,2.40564 -1.81616,4.82307 -2.52088,5.21745 -0.96652,0.54089 -2.45976,-0.39861 -2.93834,-1.84873 -0.2212,-0.67025 -0.39923,-2.06207 -0.39561,-3.09294 0.0118,-3.34395 -0.134199,-3.62737 -2.203709,-4.27973 -1.02002,-0.32153 -3.19612,-0.82232 -4.83578,-1.11287 -1.63966,-0.29055 -3.34328,-0.60181 -3.78582,-0.69168 -0.44255,-0.0899 -2.26817,-0.32815 -4.05695,-0.5295 -1.78877,-0.20135 -4.44294,-0.54226 -5.89815,-0.75757 -1.45521,-0.21531 -4.15396,-0.45703 -5.99722,-0.53715 -1.84326,-0.0801 -4.1726,-0.39332 -5.17631,-0.696 -1.0037,-0.30267 -3.46433,-0.60123 -5.46805,-0.66347 -2.00373,-0.0622 -4.83376,-0.30551 -6.28897,-0.54062 -1.45521,-0.2351 -3.67771,-0.54434 -4.93889,-0.6872 -1.26118,-0.14285 -2.51914,-0.3252 -2.79546,-0.40523 -0.37427,-0.10839 -0.66815,0.61926 -1.15232,2.85312 -0.35745,1.64924 -0.88171,3.79451 -1.16502,4.76728 -0.75595,2.59558 -1.94276,9.84779 -1.94276,11.87152 0,0.96362 -0.15255,2.03707 -0.339,2.38545 -0.56747,1.06032 -0.6937,5.85147 -0.33994,12.902142 0.45529,9.07431 0.80261,12.09291 1.46796,12.75826 0.73259,0.73259 3.56093,1.23045 5.54417,0.97592 1.04231,-0.13377 2.03684,-0.0248 2.83903,0.31113 0.6791,0.28437 2.2666,0.63032 3.52778,0.76878 2.50254,0.27476 7.4663,1.35215 9.70139,2.10571 2.15235,0.72568 8.80453,1.95381 10.58275,1.95381 1.04553,0 4.93973,1.02693 6.84779,1.80581 1.47536,0.60226 6.04173,1.33122 10.79168,1.72275 2.52236,0.20792 4.82423,0.44664 5.115269,0.53049 0.71139,0.20494 10.20561,1.88678 12.17084,2.15598 3.78917,0.51904 8.36236,0.74386 12.17083,0.59833 2.42535,-0.0927 5.28285,-0.14669 6.35,-0.12001 z m 3.88055,-39.462872 c -3.03644,-0.80066 -4.97482,-1.71085 -7.83921,-3.68104 -1.30414,-0.89702 -2.75689,-1.72775 -3.22833,-1.84607 -1.2317,-0.30914 -2.33801,-1.45973 -2.33801,-2.43159 0,-1.15537 1.86524,-2.66404 3.29026,-2.66127 0.61571,0.001 1.59571,0.25319 2.17779,0.56 0.58209,0.3068 2.06154,0.93785 3.28767,1.40233 1.22613,0.46448 2.67938,1.16498 3.22946,1.55667 0.55006,0.39169 1.13437,0.71239 1.29844,0.71268 0.16408,2.9e-4 1.80645,0.92697 3.64971,2.0593 3.53442,2.1712 4.46468,3.33767 3.54527,4.44549 -0.6126,0.73813 -4.04638,0.68157 -7.07305,-0.1165 z m 5.87963,-113.162885 c -0.54392,-0.543923 -0.17201,-2.255202 0.7207,-3.316125 0.87831,-1.043806 1.66024,-1.635164 5.60325,-4.237598 4.56317,-3.011752 8.15026,-4.630244 11.61797,-5.242017 1.15919,-0.204505 2.75328,-0.504581 3.54241,-0.666841 0.78914,-0.162257 3.56726,-0.269784 6.17361,-0.238951 4.91794,0.05818 7.11834,0.539426 10.6092,2.320329 1.38422,0.706176 2.77268,1.983475 2.77268,2.5507 0,0.346819 -5.81197,0.11908 -9.17223,-0.35941 -4.00379,-0.570125 -13.451,0.620814 -14.8459,1.871517 -0.30713,0.275372 -1.33901,0.765038 -2.29306,1.08814 -0.95405,0.323105 -2.13152,0.874254 -2.61659,1.224777 -0.48507,0.350524 -1.67569,0.839632 -2.64583,1.086908 -0.97014,0.247277 -2.16077,0.7355 -2.64584,1.08494 -3.25947,2.34811 -6.11819,3.535811 -6.82037,2.833631 z M -154.52092,120.69669 c -0.1149,-0.29941 -0.28456,-0.46872 -0.37703,-0.37625 -0.0925,0.0925 -0.0635,0.33745 0.0644,0.54439 0.34786,0.56284 0.55117,0.4535 0.31263,-0.16814 z m -70.21971,-53.057102 c 1.57817,-1.87554 5.66547,-5.34022 8.53826,-7.23761 1.55222,-1.0252 4.56847,-3.31514 6.70277,-5.08875 3.07645,-2.55654 4.28262,-3.33621 5.82084,-3.76264 1.06715,-0.29583 3.05152,-0.85012 4.40972,-1.23176 1.45887,-0.40992 3.55315,-0.69342 5.1176,-0.69276 1.45649,7.1e-4 3.20274,-0.1689 3.88056,-0.3767 1.97085,-0.60422 7.79677,-0.978778 8.9935,-0.57821 0.58209,0.19483 1.76472,0.82316 2.62807,1.39628 0.86335,0.57313 2.37147,1.42269 3.35139,1.88793 2.86455,1.36 4.58256,2.36733 5.80633,3.40446 1.37843,1.16819 1.83168,1.204 2.71162,0.21421 0.83933,-0.94411 5.00757,-3.65113 6.16197,-4.00183 0.97036,-0.29479 8.22644,-3.872846 11.4434,-5.642874 1.16417,-0.640545 3.30729,-1.607837 4.7625,-2.149542 1.45521,-0.541704 3.45894,-1.50327 4.45273,-2.136813 0.9938,-0.63354 2.2638,-1.25966 2.82223,-1.391377 1.48326,-0.349857 4.27071,-2.269105 6.43696,-4.432049 1.82565,-1.82287 1.87847,-1.929095 1.46676,-2.949311 -0.2349,-0.582083 -0.63315,-1.700353 -0.885,-2.485047 -0.25185,-0.784691 -1.58964,-3.685861 -2.97286,-6.447042 -1.38322,-2.761181 -2.74256,-5.894172 -3.02075,-6.962203 -0.27818,-1.068031 -0.81104,-2.373736 -1.18413,-2.901569 -0.72918,-1.031614 -1.61384,-3.032809 -3.07541,-6.9569149 -2.59627,-6.970645 -3.06652,-8.268014 -3.65439,-10.082223 -0.3508,-1.082587 -1.67534,-4.042265 -2.94343,-6.577065 -1.26808,-2.5348031 -2.81997,-6.0940521 -3.44863,-7.9094431 -0.62867,-1.815391 -1.34277,-3.697587 -1.5869,-4.182657 -0.24412,-0.485069 -0.87456,-2.151944 -1.40098,-3.704166 -0.52641,-1.552222 -1.19565,-3.199554 -1.48718,-3.66074 -0.29153,-0.461183 -0.66087,-1.254933 -0.82075,-1.763889 -0.15988,-0.508952 -0.79374,-2.115996 -1.40857,-3.571204 -0.61483,-1.455209 -1.81061,-4.604685 -2.65728,-6.998839 -0.84668,-2.394151 -2.01,-5.410401 -2.58516,-6.702778 -0.57517,-1.292373 -1.69977,-4.096021 -2.49911,-6.230327 -0.79934,-2.134305 -2.25592,-5.70618 -3.23685,-7.937499 -2.50089,-5.688814 -2.7408,-6.258211 -3.64112,-8.641842 -0.43996,-1.164833 -1.12416,-2.832255 -1.52042,-3.70538 -0.39627,-0.873125 -1.30385,-2.936875 -2.01684,-4.586111 -0.71299,-1.649236 -1.97792,-4.427361 -2.81095,-6.173611 -2.01257,-4.218897 -4.31841,-10.658743 -4.94914,-13.82215 -0.33942,-1.702342 -1.0214,-2.097042 -2.12435,-1.229462 -0.50016,0.393431 -1.41787,0.824011 -2.03935,0.956842 -0.62148,0.132835 -1.52684,0.440835 -2.01191,0.684453 -0.48507,0.243614 -2.23584,1.109697 -3.89061,1.924632 -2.74002,1.349392 -6.5177,3.615224 -15.46988,9.278767 -1.7617,1.114531 -4.35722,2.637318 -5.76783,3.383975 -2.67813,1.417581 -3.87197,2.090191 -7.68001,4.326918 -1.26118,0.740781 -3.13742,1.527493 -4.16942,1.74825 -1.19059,0.254681 -1.94127,0.614426 -2.05393,0.9843 -0.51239,1.682199 -0.12464,1.417468 -9.32097,6.363768 -0.86097,0.463078 -2.04046,1.23928 -2.62108,1.7249 -0.58063,0.485616 -1.69188,1.176359 -2.46945,1.534979 -0.77756,0.358623 -2.36626,1.254107 -3.53042,1.989966 -1.16417,0.735863 -3.53513,2.103889 -5.26881,3.040062 -1.73368,0.936174 -3.98909,2.320421 -5.01202,3.076106 -1.02293,0.755682 -2.01323,1.373971 -2.20065,1.373971 -0.18743,0 -0.78952,0.369894 -1.33798,0.821986 -1.23278,1.016166 -5.27337,2.966586 -6.46526,3.120827 -1.50776,0.195118 -1.36972,1.754258 0.3579,4.042474 0.80706,1.068952 1.85683,2.824148 2.33282,3.900438 0.47599,1.076286 1.2528,2.464759 1.72627,3.0855 0.47345,0.620737 1.087,1.769628 1.36341,2.553088 0.27643,0.783459 1.38235,3.312558 2.45762,5.620219 1.07527,2.30766 2.43953,5.437582 3.0317,6.955387 0.93314,2.391763 1.00948,2.826829 0.57267,3.263639 -0.35908,0.359078 -0.41918,0.782817 -0.209,1.47369 0.73595,2.419135 1.55384,4.328922 2.90583,6.785172 3.08325,5.601572 6.74073,13.0086661 7.87532,15.9490051 0.65095,1.686994 1.58898,3.828856 2.0845,4.759692 0.49553,0.93084 0.90095,2.031496 0.90095,2.445907 0,0.864094 0.57059,2.319704 2.47258,6.3076949 0.7403,1.552222 2.17263,4.727222 3.18296,7.055555 1.89075,4.357296 5.38703,11.225043 6.20174,12.182094 0.25303,0.297236 1.0775,2.043486 1.83215,3.880555 1.85164,4.507484 1.69785,4.178564 2.88125,6.16235 0.57872,0.970139 1.45886,2.637014 1.95587,3.704167 0.49701,1.067152 1.1555,2.416527 1.46332,2.998609 0.93355,1.7653 2.5858,7.17975 2.36585,7.75291 -0.11341,0.29555 -0.44829,0.53737 -0.74418,0.53737 -0.91474,0 -2.84393,-1.39015 -3.57407,-2.57542 -1.21332,-1.96964 -4.61217,-8.997699 -5.5277,-11.430028 -0.48506,-1.288704 -1.02827,-2.519418 -1.20712,-2.734916 -0.17885,-0.215502 -0.86721,-1.677021 -1.52969,-3.24782 -0.66248,-1.5708 -1.61135,-3.391373 -2.1086,-4.045716 -0.49725,-0.654339 -1.47854,-2.539086 -2.18063,-4.188322 -1.10528,-2.596339 -3.12401,-6.85305 -6.02293,-12.699999 -0.76939,-1.551817 -1.30379,-3.103404 -1.72207,-4.999895 -0.11438,-0.518622 -0.5956,-1.403629 -1.06938,-1.9666829 -0.91121,-1.082904 -6.19434,-11.392665 -6.19434,-12.087923 0,-0.224469 -0.71438,-1.773357 -1.5875,-3.441979 -0.87313,-1.668617 -1.5875,-3.257832 -1.5875,-3.531587 0,-0.273756 -0.30695,-0.9288011 -0.6821,-1.4556571 -0.37516,-0.526859 -0.78679,-1.375025 -0.91474,-1.884817 -0.12795,-0.509792 -0.93225,-1.992083 -1.78734,-3.293981 -0.8551,-1.301898 -1.55642,-2.54199 -1.55852,-2.755756 -0.002,-0.213765 -0.67678,-1.352754 -1.49931,-2.531088 -0.82252,-1.178334 -1.87621,-3.003959 -2.34153,-4.056944 -1.64135,-3.714249 -3.2199,-6.895296 -5.32657,-10.733966 -2.09442,-3.816339 -3.0664,-5.742029 -6.02543,-11.93753 -0.81907,-1.714945 -1.72815,-3.209766 -2.02017,-3.321826 -0.29202,-0.11206 -1.33989,0.254137 -2.32859,0.81377 -0.98871,0.559632 -2.82952,1.275764 -4.0907,1.591405 -2.07611,0.519596 -2.28495,0.654163 -2.20735,1.422368 0.10311,1.020886 0.97634,3.087995 3.49226,8.266949 1.79828,3.701707 2.39555,5.811957 1.48586,5.249731 -0.5939,-0.367051 -0.1104,1.375491 1.08555,3.912355 0.54882,1.164167 1.11472,2.513542 1.25755,2.998611 0.14283,0.485069 0.63813,1.387291 1.10069,2.004935 0.46254,0.617643 0.84099,1.264796 0.84099,1.438116 0,0.173323 0.83905,1.572976 1.86455,3.110346 1.79204,2.686502 2.87971,4.759057 5.06187,9.645336 0.55609,1.2452071 1.17707,2.4358321 1.37994,2.6458331 0.54542,0.564579 3.91186,6.942345 4.20507,7.966544 0.6351,2.218475 2.26673,5.973575 5.21172,11.9944439 5.95335,12.171267 8.50651,17.064294 10.26618,19.674737 0.68939,1.022702 1.74266,2.822183 2.3406,3.998849 1.02646,2.019934 2.96711,5.0794 5.23484,8.252801 0.55461,0.776111 1.29702,2.046111 1.6498,2.822222 0.35278,0.776112 1.3263,2.542661 2.16337,3.925671 0.83707,1.38301 1.8448,3.36739 2.23938,4.40972 0.39459,1.04234 1.42487,3.16516 2.28952,4.71739 0.86465,1.55222 2.32811,4.29066 3.25214,6.08541 0.92403,1.79476 1.86904,3.2632 2.10001,3.2632 0.23098,0 0.81284,-0.46692 1.29303,-1.0376 z m 94.28329,-61.9332329 c 0.32247,-1.358195 0.97734,-3.643023 1.45528,-5.077396 0.47793,-1.434377 0.78162,-2.955978 0.67486,-3.38134 -0.18494,-0.736847 -4.03414,-4.064875 -4.70144,-4.064875 -0.17479,0 -0.99844,-1.067629 -1.83034,-2.372504 -1.43654,-2.2532981 -1.50195,-2.4704391 -1.30184,-4.3215281 0.45431,-4.202437 0.47217,-4.056323 -0.50976,-4.170697 -0.66135,-0.07703 -1.02672,0.128929 -1.37147,0.773098 -0.41067,0.767348 -0.37483,1.080452 0.28417,2.482412 1.16344,2.475107 1.01477,4.057597 -0.53069,5.6489071 -1.08385,1.116002 -1.44862,1.290158 -2.33213,1.113455 -1.04159,-0.208319 -1.04603,-0.20223 -0.81059,1.112446 0.1302,0.72705 0.71069,2.347471 1.28997,3.600933 0.57927,1.253458 1.45044,3.475958 1.93593,4.938889 0.48549,1.462927 1.41166,3.532991 2.05815,4.600144 1.22297,2.018704 2.73143,5.1818189 3.19651,6.7027779 0.14832,0.485069 0.52391,1.358194 0.83464,1.940277 0.5552,1.040042 0.56935,0.988219 0.8187,-2.998611 0.13956,-2.231319 0.51758,-5.1681939 0.84005,-6.5263879 z m 55.189679,8.4666659 c 0,-0.291042 -0.15875,-0.529167 -0.35278,-0.529167 -0.19403,0 -0.35278,0.238125 -0.35278,0.529167 0,0.291042 0.15875,0.529167 0.35278,0.529167 0.19403,0 0.35278,-0.238125 0.35278,-0.529167 z m -21.96042,-22.8681409 c 1.44361,-1.299598 0.64027,-1.8415181 -0.93476,-0.630573 -0.46561,0.357978 -1.17998,0.580514 -1.5875,0.494521 -0.706779,-0.149148 -0.702649,-0.122686 0.0896,0.574114 0.87374,0.768494 1.14713,0.719261 2.4327,-0.438062 z m -45.074399,-3.3707671 c -1.37515,-2.234914 -1.49647,-4.617268 -0.3474,-6.821815 l 0.74383,-1.42706 -0.73229,-0.77948 c -1.49684,-1.593318 -1.83332,-5.061684 -0.78818,-8.124402 0.78381,-2.296904 1.62406,-2.381437 1.75329,-0.176389 0.11869,2.025358 0.37773,3.175 0.7154,3.175 0.14621,0 0.56708,-0.559382 0.93527,-1.243072 0.96685,-1.795318 2.06985,-1.953458 3.55887,-0.510237 1.00515,0.974231 1.28122,1.086496 1.73852,0.706974 0.29899,-0.248144 0.54362,-0.636164 0.54362,-0.86227 0,-0.226106 0.4698,-0.96073 1.044,-1.632497 0.5742,-0.67177 1.05045,-1.589669 1.05833,-2.039778 0.0181,-1.030923 -1.78563,-3.773237 -3.44409,-5.236369 -1.02954,-0.908286 -1.30129,-1.433283 -1.46084,-2.822222 -0.1078,-0.938498 -0.35476,-1.701267 -0.54879,-1.695044 -0.19402,0.0062 -2.18932,0.139149 -4.434,0.295391 -4.77971,0.332691 -6.29484,0.03517 -8.8812,-1.743925 -2.3159,-1.593056 -2.74808,-1.573198 -2.48768,0.1143 0.11228,0.727604 0.25546,1.383478 0.31818,1.457494 0.25349,0.299131 -0.62661,1.452923 -1.10826,1.452923 -0.83638,0 -0.61192,0.882956 1.08175,4.255254 1.40123,2.790017 2.17383,4.568631 3.13191,7.210023 0.40255,1.109796 0.79743,0.07669 1.25887,-3.293417 0.47155,-3.443993 0.59103,-3.816046 1.31465,-4.093725 1.50826,-0.578778 1.809,1.438991 1.17986,7.916308 -0.25887,2.665279 -0.19821,3.29516 0.54576,5.666313 0.63966,2.038717 0.7621,2.928902 0.51929,3.77552 -0.38585,1.345385 0.18164,3.475111 1.82595,6.852591 0.949,1.9492881 1.23017,2.2799081 1.61656,1.9009041 0.38748,-0.3800651 0.27573,-0.7708861 -0.65118,-2.2772931 z m 19.48513,-5.599285 c 0.60177,-0.691264 2.33974,-4.239718 4.53207,-9.253241 0.8043,-1.839319 1.90011,-3.982444 2.43512,-4.7625 0.535,-0.780058 1.57788,-2.370786 2.31749,-3.534953 0.73961,-1.164166 1.93213,-2.831041 2.65004,-3.704166 1.37186,-1.668477 2.80308,-3.873235 2.80532,-4.321528 0.004,-0.729075 -1.66738,-0.121246 -2.66705,0.970139 -0.88975,0.971388 -1.40081,1.234722 -2.39624,1.234722 -0.6959,0 -2.18261,0.411233 -3.30381,0.91385 -1.12119,0.50262 -2.83228,1.045937 -3.80242,1.207371 -0.97013,0.161435 -2.47826,0.477919 -3.35138,0.703298 -0.87313,0.225379 -2.89719,0.427528 -4.49792,0.449224 -1.60073,0.02169 -2.91042,0.10051 -2.91042,0.175147 0,0.07464 0.53719,0.956363 1.19376,1.95938 0.65656,1.003022 1.63515,3.093674 2.17463,4.645896 0.53948,1.552223 1.50854,3.824059 2.15346,5.048525 1.14007,2.16456 1.16639,2.309866 0.94896,5.239071 -0.1765,2.377761 -0.11986,3.07848 0.26875,3.324543 0.68887,0.436188 0.84007,0.40544 1.44964,-0.294778 z m -32.84058,-24.667985 c -0.41586,-0.715155 -0.51629,-0.486251 -0.17587,0.400876 0.12099,0.315277 0.29429,0.498919 0.38512,0.408089 0.0908,-0.09083 -0.003,-0.454864 -0.20925,-0.808965 z m 33.02985,0.414309 c 1.6311,-0.238703 1.85825,-0.588355 0.84629,-1.302709 -0.69739,-0.492287 -1.81642,-2.434407 -1.81642,-3.152436 0,-0.238393 -0.56852,-0.954176 -1.26337,-1.590633 -1.38411,-1.267802 -1.49677,-2.352795 -0.26263,-2.529445 0.51762,-0.07409 0.83426,0.125713 0.99328,0.626763 0.1284,0.404534 0.60823,0.981085 1.06631,1.281225 0.45807,0.30014 0.93127,0.993825 1.05157,1.541523 0.12029,0.547698 0.50317,1.253239 0.85083,1.567871 0.60249,0.545246 0.64301,0.405938 0.86442,-2.972671 0.12776,-1.949598 0.13471,-4.154999 0.0154,-4.900891 -0.23478,-1.468233 -0.0517,-1.706605 1.78721,-2.326725 2.17778,-0.734402 3.22357,-3.740513 2.26144,-6.500473 -0.29445,-0.844663 -0.2937,-1.24061 0.003,-1.537222 0.29751,-0.297505 0.5086,-0.110526 0.82673,0.732282 0.77741,2.059597 2.13374,1.351597 2.56255,-1.337642 0.60982,-3.82452 1.42471,-6.210885 2.22586,-6.518314 0.8441,-0.32391 1.40345,0.652463 1.68531,2.941793 0.26422,2.145975 0.76329,3.787267 0.87298,2.870965 0.0349,-0.291041 0.10319,-1.322916 0.15189,-2.293055 0.0487,-0.970139 0.189,-2.795764 0.31177,-4.056944 0.12278,-1.261181 0.10418,-2.467727 -0.0413,-2.681217 -0.90996,-1.335049 -4.05662,-1.647913 -4.68904,-0.466217 -0.21579,0.403218 -0.31544,0.933552 -0.22144,1.178518 0.094,0.244968 0.0382,0.6601 -0.12396,0.922517 -0.23665,0.382908 -0.47729,0.394003 -1.21868,0.0562 -1.83985,-0.838327 -4.06553,-0.443449 -4.06553,0.721321 0,0.621016 -0.16324,0.687483 -1.2538,0.510505 -1.40525,-0.228039 -2.62676,0.630488 -2.62676,1.846185 0,1.678502 -0.89025,2.316243 -1.76388,1.263575 -0.71619,-0.862943 -1.34784,-0.615374 -2.30714,0.904247 -1.13859,1.803647 -1.96205,1.733854 -2.36622,-0.200557 -0.36259,-1.73537 -0.21269,-3.902287 0.26363,-3.811316 0.19403,0.03706 0.43653,0.422162 0.5389,0.85579 0.29674,1.257017 0.80097,1.101576 1.86358,-0.574492 0.97437,-1.53688 0.98126,-1.584985 0.40213,-2.805409 -1.00325,-2.114197 0.0525,-3.23192 1.18055,-1.249853 0.77189,1.356248 1.18605,1.193257 1.72848,-0.68024 0.71761,-2.478553 1.08943,-2.704507 2.38462,-1.449151 1.76373,1.70947 3.7198,1.320264 3.7198,-0.740142 0,-1.334664 0.60203,-1.581619 1.59092,-0.652603 l 0.83314,0.782694 0.99283,-0.707658 c 0.54606,-0.389213 1.29525,-1.042293 1.66487,-1.451289 0.36962,-0.408997 0.87144,-0.743631 1.11516,-0.743631 0.24373,0 0.86988,-0.507157 1.39145,-1.127012 1.15889,-1.377252 1.0386,-2.923868 -0.35631,-4.581634 -1.21683,-1.446114 -0.68095,-2.061433 0.9442,-1.084182 0.64479,0.387735 1.56922,0.802919 2.05429,0.922634 0.48507,0.119715 1.47957,0.735422 2.20999,1.368235 1.29068,1.118199 1.31723,1.188797 0.94368,2.509251 -0.3261,1.15273 -0.26988,1.640738 0.37087,3.219429 0.41537,1.023412 1.19454,2.281643 1.73148,2.796071 0.921769,0.883112 1.032299,0.906258 1.979969,0.414598 0.55204,-0.286399 1.13414,-0.440108 1.29358,-0.34157 0.45668,0.282244 0.33852,1.613881 -0.19756,2.226402 -1.03092,1.177921 -0.99989,2.033086 0.12006,3.308639 0.59011,0.672102 1.07293,1.556244 1.07293,1.964757 0,1.01389 2.58784,2.650807 3.73539,2.362793 0.46007,-0.115472 1.32142,-0.68398 1.9141,-1.263347 0.59269,-0.57937 1.27085,-1.053398 1.50703,-1.053398 0.65816,0 2.07751,-2.954443 2.27927,-4.744395 0.13049,-1.157707 -0.0265,-2.076496 -0.57097,-3.34221 -0.81726,-1.899764 -0.98282,-4.66309 -0.37516,-6.261378 0.20668,-0.543595 1.23229,-2.275618 2.27914,-3.848936 1.7919,-2.693056 1.9087,-3.003229 1.99454,-5.296415 0.0705,-1.884189 -0.0553,-2.655538 -0.55582,-3.40597 -0.74486,-1.116874 -1.28565,-1.277172 -1.03162,-0.305792 0.0956,0.36539 -0.0896,1.17347 -0.41133,1.795731 -0.32179,0.622258 -0.49146,1.3753 -0.37706,1.673422 0.21092,0.549656 -0.35393,1.510944 -0.88782,1.510944 -0.16044,0 -0.75669,-0.49754 -1.32502,-1.105644 -0.90401,-0.967289 -1.18885,-1.076463 -2.2763,-0.872455 -0.83638,0.156905 -1.54283,0.62629 -2.15957,1.434881 -0.50411,0.660933 -0.91658,1.305401 -0.91658,1.432147 0,0.126746 0.47283,0.891403 1.05072,1.699232 1.63859,2.290565 1.62587,5.56902 -0.0289,7.453729 -1.21725,1.386374 -2.48992,1.624005 -3.55165,0.663155 -0.82725,-0.748655 -0.81193,-1.450333 0.0604,-2.767545 1.35224,-2.041815 0.60915,-4.7625 -1.30077,-4.7625 -1.17108,0 -1.60027,-1.266476 -0.89663,-2.645833 0.74923,-1.468741 4.00241,-4.60248 5.84693,-5.632267 0.84426,-0.471342 2.27958,-1.044472 3.18959,-1.273616 0.91002,-0.229146 1.57144,-0.499755 1.46984,-0.601355 -0.1016,-0.101604 -1.33382,-0.151176 -2.73827,-0.110169 -3.67902,0.107424 -5.64811,1.2821 -8.77731,5.236157 -0.41303,0.521917 -1.952139,0.588638 -2.255509,0.09778 -0.11666,-0.188754 -0.8259,-0.508469 -1.5761,-0.710473 -1.502,-0.404449 -3.5451,-2.432572 -3.5451,-3.519117 0,-0.36722 0.35719,-0.957008 0.79375,-1.31064 0.43656,-0.353631 0.95259,-1.108604 1.14673,-1.677715 0.32302,-0.94695 0.56252,-1.07054 2.82222,-1.45639 1.35808,-0.2319 3.501119,-0.88979 4.762299,-1.46198 1.26118,-0.57218 3.16618,-1.36578 4.23333,-1.76354 1.06715,-0.39776 3.09121,-1.16479 4.49792,-1.7045 l 2.55763,-0.98129 v -1.7078 c 0,-1.93917 -0.603,-2.25099 -1.90315,-0.98414 -1.16761,1.1377 -5.42044,3.7904 -8.14063,5.07771 -2.36103,1.11733 -4.964699,1.83749 -10.064549,2.78379 l -2.29305,0.42548 -0.0639,1.71454 c -0.0821,2.203689 -0.64238,2.8234 -1.10602,1.223358 -0.18946,-0.653852 -0.59275,-1.763968 -0.89621,-2.466928 -0.30346,-0.70296 -0.46653,-1.36332 -0.36238,-1.46747 0.10415,-0.10416 -0.22996,-1.45359 -0.74248,-2.99874 -0.71578,-2.15796 -1.34161,-3.26912 -2.69908,-4.79216 -1.85366,-2.07977 -2.09511,-3.14124 -0.75798,-3.33235 0.50035,-0.0715 1.05914,0.23011 1.5839,0.85495 2.6008,3.09684 2.42587,2.98493 5.2137,3.33499 1.65378,0.20765 3.03648,0.20676 3.70408,-0.002 1.09345,-0.34257 2.44451,-0.47607 4.15205,-0.41027 0.700809,0.027 0.970139,0.22137 0.970139,0.70013 0,0.63357 -0.29852,0.80753 -3.086799,1.79882 -0.53358,0.18969 -2.22006,0.41567 -3.74773,0.50216 -3.17827,0.17995 -3.7066,0.48373 -3.11179,1.78919 0.49855,1.09422 0.58953,1.0935 4.30188,-0.034 1.64923,-0.50091 3.39548,-0.99513 3.88055,-1.09827 0.48507,-0.10313 1.040699,-0.3111 1.234719,-0.46213 0.19403,-0.15104 1.54341,-0.75154 2.99861,-1.33445 4.87844,-1.95414 10.58334,-5.35782 10.58334,-6.31429 0,-0.28255 -0.30863,-0.90609 -0.68585,-1.38564 -1.22273,-1.55446 -0.63104,-1.99234 2.31866,-1.71593 3.36719,0.31553 4.67608,-0.1147 5.59913,-1.84045 0.86405,-1.61543 1.76619,-1.89272 2.08072,-0.63954 0.12418,0.49478 0.46088,0.89959 0.74822,0.89959 0.7468,0 0.64658,-0.70914 -0.30001,-2.12297 -0.45236,-0.67563 -1.20251,-2.48051 -1.66701,-4.01084 -0.67132,-2.21173 -1.08634,-2.97148 -2.02344,-3.70417 -0.64839,-0.50696 -1.55567,-1.26259 -2.01617,-1.67919 -2.33893,-2.11595 -10.47057,-5.40218 -14.43399,-5.83319 -1.40317,-0.15259 -1.48217,-0.71185 -0.20698,-1.46513 0.58395,-0.34495 1.06172,-0.77695 1.06172,-0.96001 0,-0.44996 -2.61604,-0.42189 -4.19241,0.045 -0.952629,0.28215 -2.057659,0.25291 -4.363929,-0.11546 -2.12709,-0.33976 -3.07481,-0.375 -3.04501,-0.11324 0.13965,1.22644 -0.59396,1.44623 -5.98617,1.79354 -1.2934,0.0833 -2.53839,0.39678 -3.12835,0.78769 -1.54872,1.02618 -2.33009,1.4784 -3.20827,1.85679 -1.2044,0.51896 -5.69675,1.40927 -7.1203,1.41112 -0.6791,0.001 -1.79035,0.34747 -2.46945,0.7702 l -1.23472,0.7686 1.41111,0.4082 c 0.82766,0.23942 1.45938,0.65615 1.52785,1.00787 0.10615,0.54527 -0.24595,0.58152 -3.88056,0.39954 -2.19851,-0.11008 -5.66416,-0.35858 -7.70146,-0.55222 -2.03729,-0.19364 -5.45041,-0.51788 -7.58472,-0.72052 -2.1343,-0.20265 -4.03136,-0.51603 -4.21569,-0.6964 -1.08196,-1.0588 2.88876,-1.71951 11.57415,-1.92591 4.23008,-0.10052 6.20466,-0.33583 10.23055,-1.21913 2.74383,-0.60202 5.82318,-1.27181 6.84303,-1.48843 1.01984,-0.21662 1.7989,-0.4492 1.73126,-0.51685 -0.2158,-0.2158 -8.8734,0.89076 -9.83772,1.25739 -0.50982,0.19383 -2.08443,0.40056 -3.49912,0.45939 -2.06797,0.086 -2.59365,0.003 -2.68168,-0.42511 -0.1495,-0.72645 4.84246,-3.09331 7.40311,-3.51006 1.08237,-0.17616 2.57751,-0.48017 3.32253,-0.67558 0.74502,-0.19541 2.94646,-0.53694 4.89208,-0.75896 3.51615,-0.40123 6.53214,-0.15177 8.85855,0.73274 1.22881,0.46719 4.43804,0.74444 4.20232,0.36304 -0.10769,-0.17425 -0.98919,-0.52016 -1.95889,-0.76868 -0.9697,-0.24844 -1.76309,-0.5884 -1.76309,-0.75539 0,-0.88272 1.17963,-2.40223 2.03075,-2.61585 0.52777,-0.13246 2.85597,0.0212 5.17377,0.34156 2.3178,0.32031 4.27346,0.52312 4.34589,0.45068 0.125509,-0.1255 -0.62795,-0.42141 -7.737,-3.03854 -2.89732,-1.06662 -3.25588,-1.11769 -6.52639,-0.92952 -2.68928,0.15473 -4.26792,0.47792 -7.0825,1.45 -1.99203,0.68799 -3.86076,1.25089 -4.15273,1.25089 -0.29198,0 -1.98551,0.56841 -3.76341,1.26314 -2.15386,0.84164 -4.21087,1.36408 -6.16431,1.56562 -1.61246,0.16637 -3.10245,0.40798 -3.31108,0.53692 -0.50288,0.31079 -4.88086,1.22043 -5.8738,1.22043 -0.78208,0 -2.67373,0.70422 -4.33363,1.61333 -2.44052,1.33664 -6.36777,3.09634 -7.9375,3.55658 -3.44466,1.00996 -5.29656,2.11433 -7.34934,4.38272 -1.7623,1.9474 -3.0123,4.36861 -2.5131,4.86779 0.0949,0.0949 0.60656,-0.17543 1.13696,-0.60081 2.88744,-2.3157 3.71584,-2.65754 8.01992,-3.30943 2.32834,-0.35264 4.83414,-0.54494 5.56845,-0.42733 0.84198,0.13486 1.53051,0.0517 1.86411,-0.22518 0.39906,-0.33118 0.72101,-0.34248 1.31072,-0.046 0.42995,0.21617 2.62161,0.46935 4.87036,0.56261 3.72263,0.1544 4.38552,0.29059 7.40528,1.52147 2.23896,0.91262 3.35633,1.55795 3.43878,1.98606 0.10407,0.54044 -0.0519,0.60225 -1.05529,0.41825 -4.19214,-0.76871 -18.21054,-0.33469 -22.68175,0.70226 -1.33905,0.31054 -2.80631,0.47134 -3.26058,0.35733 -1.17079,-0.29385 -2.19845,0.37142 -2.80085,1.81317 -0.2852,0.68257 -1.1052,2.01149 -1.82222,2.95315 -3.5372,4.64539 -3.30743,4.13001 -3.13749,7.03744 0.0851,1.45546 0.34641,3.91629 0.58075,5.46851 0.39559,2.62041 0.36103,3.12067 -0.48335,6.99559 -1.13777,5.221302 -1.13618,6.369752 0.0125,9.018379 0.76807,1.771029 1.12181,2.191727 2.11989,2.521123 0.65889,0.217452 1.43465,0.63204 1.72392,0.921311 0.57769,0.577691 0.72221,3.134826 0.19556,3.460312 -0.88855,0.549159 -3.78564,5.210182 -4.46574,7.184782 l -0.76877,2.232049 0.97479,2.706839 c 0.94404,2.621471 1.81062,4.709675 3.17288,7.645728 0.3601,0.776111 0.74331,1.692525 0.85158,2.036473 0.41123,1.306365 1.31687,1.126293 2.90362,-0.577338 1.6803,-1.804063 2.72267,-2.341079 4.54416,-2.341079 0.83161,0 1.35771,-0.23694 1.74092,-0.784052 0.80932,-1.155468 0.6771,-1.867811 -0.53623,-2.888756 -1.30207,-1.095615 -2.1197,-1.158219 -2.71328,-0.207748 -0.24235,0.388056 -0.75678,0.705556 -1.1432,0.705556 -1.14552,0 -0.95211,-2.098361 0.30438,-3.302152 1.37754,-1.319766 2.73083,-1.637499 4.4436,-1.043298 2.97159,1.030916 4.20391,3.200788 3.93302,6.925261 -0.12972,1.783411 -0.0448,2.737044 0.28898,3.246501 0.77275,1.179381 3.07399,2.533759 5.09708,2.999849 1.56491,0.360535 2.31182,0.831049 4.30695,2.713157 1.32755,1.25234 2.50669,2.569912 2.62033,2.927936 0.11363,0.358027 0.75519,0.974629 1.42568,1.370231 0.6705,0.395601 1.21908,0.988487 1.21908,1.317526 0,0.329039 0.23242,1.405957 0.51648,2.393149 0.28406,0.987192 0.60905,2.249276 0.72221,2.804633 0.20311,0.996798 0.21522,1.001317 0.9454,0.352777 l 0.73966,-0.65696 -0.1937,2.204861 c -0.19285,2.195167 -0.18958,2.20497 0.74299,2.229658 0.51517,0.01365 1.20676,0.132697 1.53685,0.264583 0.69788,0.278829 5.76899,0.206668 7.95469,-0.113196 z m -7.61592,-1.806081 c -0.57899,-0.702416 -1.15634,-1.829523 -1.283,-2.50468 -0.1853,-0.98771 -0.36238,-1.19302 -0.90629,-1.050783 -1.34994,0.353014 -1.92012,-4.16778 -0.68184,-5.406059 1.39073,-1.390731 2.84911,0.484982 3.84629,4.946975 0.23849,1.067153 0.68439,2.435489 0.99088,3.040747 0.60565,1.196054 0.41877,2.250919 -0.39878,2.250919 -0.283,0 -0.98827,-0.574703 -1.56726,-1.277119 z m -17.87227,-29.924441 c -4.09464,-2.469543 -7.8193,-4.153732 -9.17222,-4.147428 -2.51802,0.01175 -4.20935,0.494997 -5.41303,1.546645 -1.90459,1.664042 -2.23329,1.162928 -1.62235,-2.473381 0.18496,-1.100857 0.4691,-1.607919 1.01798,-1.816601 0.96949,-0.3686 2.67128,-2.918241 2.64907,-3.968859 -0.009,-0.440722 -0.3207,-1.356939 -0.69195,-2.036036 -1.51922,-2.778965 -1.76055,-3.573025 -1.76055,-5.792904 0,-2.781702 0.53679,-4.159602 1.56329,-4.012829 0.56794,0.08121 0.75434,0.402801 0.84063,1.450312 0.10433,1.26669 0.16788,1.333447 1.07885,1.133362 0.78524,-0.17247 1.21057,0.02296 2.2529,1.035282 1.8822,1.827968 2.30444,1.755197 6.36956,-1.097745 2.26729,-1.591208 6.82502,-3.546133 8.88504,-3.81102 1.97453,-0.253894 4.31255,0.376813 4.91042,1.324639 0.56557,0.896613 -0.0411,1.245654 -3.84093,2.209888 -1.89835,0.481721 -5.13809,1.649962 -7.19941,2.596095 -2.06132,0.946132 -4.34317,1.926561 -5.07077,2.178727 -0.7276,0.252169 -1.32292,0.676279 -1.32292,0.942471 0,0.734102 1.45183,6.523308 1.80556,7.199693 0.1707,0.326407 0.64402,0.699364 1.05181,0.828795 0.4078,0.12943 1.76289,0.875763 3.0113,1.658517 2.11967,1.329023 2.39157,1.408398 4.10962,1.199699 3.21598,-0.390663 3.8711,-0.590381 4.98453,-1.519594 2.14322,-1.788615 2.50465,-2.754496 2.452,-6.552738 -0.043,-3.103887 0.0148,-3.440094 0.59175,-3.440094 0.59447,0 1.34723,0.756203 2.33238,2.343033 0.3734,0.601447 0.58561,0.480811 2.57022,-1.461089 1.7879,-1.749421 2.27151,-2.483912 2.78734,-4.233333 0.39001,-1.322712 0.81534,-2.116667 1.13394,-2.116667 0.78596,0 0.47461,2.709436 -0.5571,4.84808 -1.02652,2.127871 -1.00873,2.031087 -0.37344,2.031087 0.27495,0 1.04806,-0.659903 1.71803,-1.466455 0.8894,-1.070716 1.3849,-1.402451 1.83616,-1.22929 0.48292,0.185318 0.56895,0.482593 0.3935,1.359821 -0.31776,1.588809 -1.0182,2.52954 -3.12108,4.191769 -1.6917,1.337211 -1.97034,1.439291 -3.52185,1.290207 -1.01435,-0.09746 -1.81626,-0.0035 -2.01512,0.2361 -0.18166,0.218892 -0.43853,1.267143 -0.57081,2.329445 -0.21147,1.69824 -0.45914,2.159825 -2.05115,3.822738 -2.02289,2.112977 -3.44215,2.867508 -5.41528,2.878967 -0.73384,0.0043 -2.02627,0.321761 -2.87208,0.705555 -1.92752,0.874635 -2.03837,0.869767 -3.75384,-0.164864 z m 42.68611,-37.4977 c -2.58399,-0.15379 -5.2384,-0.86943 -6.62268,-1.7855 -1.22298,-0.80933 -1.347,-1.02339 -1.16253,-2.00667 0.19104,-1.01836 0.0998,-1.14776 -1.21971,-1.72993 -1.63543,-0.72155 -2.56642,-1.92625 -2.39937,-3.10477 0.15708,-1.10819 1.59842,-1.23815 3.42078,-0.30845 0.86115,0.43932 1.50341,0.58675 1.63421,0.37513 0.11851,-0.19176 -0.18162,-0.52958 -0.66696,-0.75072 -1.86106,-0.84796 -1.36206,-2.42316 0.76763,-2.42316 0.68733,0 2.45383,0.46008 3.92555,1.0224 1.47172,0.56233 3.54898,1.334 4.61614,1.71483 2.91657,1.04083 2.58185,1.67365 -0.88195,1.6674 -1.55222,-0.003 -3.53544,-0.11192 -4.40716,-0.2425 l -1.58494,-0.23741 0.86216,0.65033 c 1.83973,1.38771 7.14405,1.94409 10.882299,1.14145 1.39473,-0.29946 2.63532,-0.44503 2.75687,-0.32348 0.59553,0.59554 -0.43875,1.29935 -3.27501,2.22861 -2.521569,0.82616 -3.736709,1.02143 -6.356329,1.02143 -4.20133,0 -3.29033,0.50597 1.38858,0.77123 1.98775,0.11269 3.68784,0.27069 3.777999,0.35111 0.0901,0.0804 -7.1e-4,0.40697 -0.201599,0.72567 -0.4347,0.68915 -3.27389,1.36085 -5.25398,1.243 z m 2.64327,-11.18846 c -2.69502,-0.34305 -3.90793,-0.70603 -6.17361,-1.84749 -2.69085,-1.35566 -2.81966,-1.47521 -2.81966,-2.61698 0,-1.03663 0.12685,-1.21106 0.94979,-1.30608 0.52238,-0.0603 1.31613,0.12858 1.76389,0.41977 0.44775,0.29118 2.6046,1.1587 4.793,1.92782 4.484859,1.57622 5.815209,2.31361 5.655869,3.13497 -0.14852,0.7656 -0.32271,0.77763 -4.169279,0.28799 z m 16.759509,-3.24825 c -1.3582,-0.69125 -2.70757,-1.46039 -2.99861,-1.70919 -1.40426,-1.20045 -6.53303,-3.70206 -7.58992,-3.70206 -1.41027,0 -1.89047,-0.86858 -0.8022,-1.451 1.34843,-0.72166 4.98521,-0.12076 7.98041,1.3186 2.94536,1.41541 6.7617,4.88007 6.7617,6.13861 0,0.95043 -0.48368,0.86456 -3.35138,-0.59496 z m -18.168059,-2.05986 c -0.24154,-0.29104 -0.63018,-0.52917 -0.86364,-0.52917 -0.53401,0 -1.95858,-1.49195 -1.95858,-2.0512 0,-0.61913 0.7642,-0.49465 1.76389,0.28732 0.48507,0.37942 1.01619,0.69339 1.18026,0.69771 0.59511,0.0157 2.35063,1.48129 2.15445,1.79871 -0.31668,0.5124 -1.7917,0.38063 -2.27638,-0.20337 z m -12.7,83.772308 c 0,-0.187201 -0.21868,-0.340367 -0.48597,-0.340367 -0.58629,0 -1.36035,0.858302 -1.05208,1.166577 0.2868,0.286801 1.53805,-0.385343 1.53805,-0.82621 z m -20.81388,-1.751478 c 0,-0.194027 -0.15875,-0.352777 -0.35278,-0.352777 -0.19403,0 -0.35278,0.15875 -0.35278,0.352777 0,0.194028 0.15875,0.352778 0.35278,0.352778 0.19403,0 0.35278,-0.15875 0.35278,-0.352778 z m 32.71022,-0.617361 c 0.34304,-0.533576 0.97036,-1.250555 1.39405,-1.593285 0.42368,-0.342727 1.11676,-1.183682 1.54018,-1.868787 l 0.76985,-1.245645 -1.46358,-1.434666 c -0.80497,-0.789068 -1.77829,-2.05155 -2.16293,-2.805518 -0.71759,-1.406595 -1.19344,-1.706612 -1.47486,-0.929876 -0.0879,0.242535 -0.0317,2.504722 0.1248,5.027083 0.15651,2.522361 0.20073,4.863923 0.0983,5.203472 -0.28924,0.95842 0.4798,0.727378 1.17424,-0.352778 z m -11.51606,-2.626155 c -0.92763,-1.672731 -1.43092,-2.306785 -1.43395,-1.806532 -0.007,1.10897 0.61099,2.572518 1.67388,3.96604 1.46495,1.920653 1.32519,0.662749 -0.23993,-2.159508 z m 6.61175,2.366303 c 0.22671,-0.226713 -0.49304,-3.720698 -1.39774,-6.785254 -0.67888,-2.299574 -0.88427,-2.616143 -2.11285,-3.256516 l -1.36088,-0.70933 -0.53111,1.271129 c -0.71648,1.714771 -0.70221,1.810748 0.65322,4.394993 0.65138,1.241912 1.47221,3.026516 1.82406,3.965783 0.606,1.617723 0.69565,1.696572 1.70036,1.49563 0.58335,-0.116671 1.13457,-0.286064 1.22494,-0.376435 z m -30.9172,-1.062024 c 0.30305,-0.66513 0.2967,-1.230256 -0.0259,-2.307152 -0.35831,-1.195924 -0.80935,-1.671126 -2.793,-2.942615 -1.30113,-0.834002 -2.79019,-2.072929 -3.30904,-2.753173 -0.51885,-0.680243 -2.05445,-1.908136 -3.41244,-2.728651 -3.11007,-1.879131 -4.17745,-1.858863 -5.09524,0.09675 -0.55689,1.186607 -0.57396,1.434776 -0.13346,1.940278 0.27781,0.318802 0.6955,1.172739 0.92822,1.897641 0.56075,1.746733 0.90437,1.891196 1.43741,0.604308 0.24316,-0.587033 0.75667,-1.235678 1.14113,-1.441436 0.5948,-0.318329 0.96893,-0.117771 2.50926,1.345121 0.99562,0.945578 3.10168,2.945616 4.68013,4.444534 1.57845,1.498917 3.05029,2.725303 3.27076,2.725303 0.22047,0 0.58147,-0.396405 0.80222,-0.880903 z m 44.033499,-5.821873 c 0.38806,-0.388056 0.70556,-0.943681 0.70556,-1.234723 0,-0.625189 -0.0387,-0.631105 -1.21176,-0.18512 -0.64157,0.243925 -0.90491,0.603243 -0.90491,1.234723 0,1.073432 0.46217,1.13406 1.41111,0.18512 z m -11.114389,-2.108059 c 0.37145,-1.691196 -0.49665,-2.442489 -1.23283,-1.066941 -0.26828,0.501293 -0.26828,0.909817 0,1.411111 0.53342,0.996703 0.96478,0.876282 1.23283,-0.34417 z m -172.48085,-0.886887 c 1.26179,-0.739461 1.53709,-1.105658 1.74171,-2.316829 0.13367,-0.7912 0.18759,-1.467538 0.11982,-1.502967 -0.0678,-0.03543 -0.59947,-0.313352 -1.18155,-0.617591 -0.97219,-0.508144 -1.05128,-0.688499 -0.97169,-2.215871 0.0476,-0.914488 0.38148,-2.253065 0.74185,-2.974612 0.36036,-0.721547 1.09634,-2.899406 1.63551,-4.839684 0.53917,-1.940277 1.17896,-3.924652 1.42176,-4.409722 0.2428,-0.485069 1.31661,-3.421944 2.38625,-6.526388 1.06964,-3.104445 2.52999,-6.993819 3.24523,-8.643055 1.53147,-3.531327 2.85204,-6.787727 5.00721,-12.347225 0.86498,-2.23132 1.82033,-4.61257 2.12301,-5.29166 0.86714,-1.94555 2.22615,-6.05889 2.22615,-6.73791 0,-0.82307 1.85799,-5.57763 3.29487,-8.43154 1.0597,-2.10474 1.24704,-2.29277 2.28121,-2.28964 1.32148,0.004 1.35723,-0.1374 0.42246,-1.67058 -0.38733,-0.63528 -0.70483,-1.57218 -0.70556,-2.082 -0.002,-1.16619 -0.80816,-1.8585 -1.85807,-1.59499 -0.91325,0.22922 -2.77591,3.59411 -3.44649,6.2261 -0.22246,0.87313 -0.84436,2.38125 -1.382,3.35139 -0.53765,0.97014 -1.40837,3.19264 -1.93495,4.93889 -2.25345,7.47296 -4.29246,13.5172 -4.74324,14.06035 -0.185,0.22292 -0.65623,1.19865 -1.04717,2.16831 -0.39094,0.96965 -1.50962,3.567724 -2.48596,5.773492 -0.97633,2.205767 -2.10418,5.279869 -2.50634,6.831337 -0.40216,1.55147 -1.12228,3.555488 -1.60026,4.453374 -0.47798,0.897887 -0.86906,1.851928 -0.86906,2.120092 0,0.268164 -0.54567,1.698181 -1.21261,3.177808 -0.66694,1.479628 -1.32402,3.563359 -1.46019,4.630512 -0.13616,1.067153 -0.54298,2.700217 -0.90405,3.629032 -0.36106,0.928814 -0.65648,2.06303 -0.65648,2.52048 0,0.457447 -0.29359,1.840633 -0.65242,3.073743 -0.35883,1.233113 -0.82145,3.115147 -1.02805,4.1823 -0.20659,1.067153 -0.47776,2.197622 -0.60259,2.512152 -0.32504,0.818991 0.72995,1.721181 2.01268,1.721181 0.59968,0 1.76474,-0.395227 2.58901,-0.878279 z m 8.02835,-2.317641 c 0.99518,-0.875989 2.16095,-2.451255 3.00233,-4.056944 l 1.37546,-2.624913 h -1.12624 c -0.99415,0 -1.22173,0.196536 -1.9403,1.675694 -0.94372,1.942603 -1.59798,2.557639 -2.72076,2.557639 -0.53514,0 -0.9861,0.34931 -1.34369,1.040814 -0.64863,1.254309 -0.67715,1.854151 -0.11489,2.416408 0.67598,0.675982 1.13932,0.513027 2.86809,-1.008698 z m 174.345909,1.057025 c 0.28,-0.453048 -0.81467,-1.74166 -1.47953,-1.74166 -0.592059,0 -0.605219,0.505781 -0.0369,1.415898 0.47935,0.76756 1.15379,0.912445 1.51638,0.325762 z m -4.438419,-3.234609 c -0.32099,-1.755344 -0.53476,-1.932435 -1.39399,-1.154843 -0.93611,0.847172 -0.89359,1.314419 0.24244,2.664524 0.83604,0.99357 0.97716,1.05223 1.17495,0.488382 0.12363,-0.35245 0.1131,-1.251578 -0.0234,-1.998063 z m -6.69313,1.404754 c -0.01,-0.825087 -0.97746,-3.238009 -1.34787,-3.361478 -0.20292,-0.06764 -0.56071,0.51708 -0.79508,1.299376 -0.33904,1.131591 -0.33448,1.532816 0.0223,1.962714 0.53808,0.648339 2.12816,0.722863 2.12065,0.09939 z m -168.23216,-2.402247 c 1.26627,-2.434618 2.48161,-5.672155 2.61163,-6.957159 0.0869,-0.85841 0.96849,-3.938802 1.95917,-6.845313 1.70497,-5.002124 2.07584,-6.872644 0.91916,-4.635867 -0.71478,1.382222 -2.8509,6.86973 -3.71713,9.548996 -0.39159,1.211188 -1.09128,2.719313 -1.55487,3.351388 -0.4636,0.632076 -1.0284,1.80322 -1.25512,2.602537 -0.66993,2.361854 0.1413,4.657841 1.03716,2.935418 z m 172.3097,-2.046386 c 0.10207,-0.512177 0.33882,-1.418749 0.52612,-2.014608 0.46818,-1.489446 0.42912,-1.862226 -0.38267,-3.651575 -0.48717,-1.07382 -0.82135,-1.446318 -1.07236,-1.195309 -0.38959,0.38959 -0.83918,6.930911 -0.53148,7.732758 0.28528,0.743447 1.25374,0.165668 1.46039,-0.871266 z m -160.22479,-0.961468 c 0.70943,-0.272231 3.3998,-3.848992 3.3998,-4.519915 0,-0.969437 -0.67003,-0.947833 -1.27157,0.041 -0.32835,0.53976 -1.02308,1.616382 -1.54384,2.392493 -1.64818,2.456349 -1.6602,2.499254 -0.58439,2.086426 z m 0.56134,-9.249498 c 0.8642,-1.299061 2.14965,-3.393803 2.85655,-4.654983 0.70691,-1.261181 1.92102,-3.404306 2.69803,-4.7625 0.777,-1.358194 1.8148,-3.196329 2.30621,-4.084743 1.15459,-2.087362 1.24136,-2.235087 4.12814,-7.027757 4.52596,-7.514061 7.43008,-12.773251 7.43008,-13.455411 0,-0.81721 -0.89168,-1.23318 -1.52204,-0.71003 -0.2501,0.20756 -0.79086,1.05876 -1.20171,1.89156 -3.41432,6.92085 -6.17464,12.761724 -6.5977,13.960801 -0.27897,0.790674 -1.86026,3.413227 -3.51397,5.827896 -1.65372,2.414668 -3.48448,5.40259 -4.06835,6.639828 -0.58387,1.237237 -1.34156,2.725772 -1.68374,3.307856 -2.54988,4.337617 -3.10835,5.483189 -2.65628,5.448733 0.13943,-0.01062 0.96058,-1.082188 1.82478,-2.38125 z m 10.34024,-4.659866 c 0.72603,-1.161482 1.15338,-2.111784 0.94967,-2.111784 -0.20371,0 -0.64081,0.511729 -0.97133,1.137172 -0.33053,0.625443 -1.10155,1.657848 -1.71339,2.294234 -0.61183,0.636383 -1.28349,1.67247 -1.49256,2.302411 l -0.38013,1.145349 1.14383,-1.327799 c 0.62912,-0.730288 1.73787,-2.278101 2.46391,-3.439583 z m -2.88944,0.454554 c 0.21828,-0.661377 0.3209,-1.278466 0.22805,-1.37131 -0.15488,-0.15488 -2.37095,3.502106 -2.37095,3.912573 0,0.603081 1.81588,-1.550363 2.1429,-2.541263 z m 152.86518,1.81453 c 0.32049,-0.835183 0.26775,-1.101848 -0.33762,-1.707218 -0.48853,-0.488537 -0.6655,-0.492919 -1.54475,-0.03825 -1.02627,0.530708 -1.58162,1.42205 -1.23521,1.982544 0.35122,0.568293 2.88239,0.37581 3.11758,-0.237078 z m -65.07536,-6.015943 c 0.97203,-1.235732 0.92789,-1.574624 -0.36429,-2.79684 -0.60249,-0.569877 -1.43829,-1.750515 -1.85732,-2.62364 -1.02744,-2.140839 -1.77734,-2.09532 -1.9184,0.116452 -0.0964,1.511868 0.0627,1.959063 1.41111,3.966993 0.83588,1.244674 1.62733,2.263831 1.75876,2.264798 0.13144,0.0011 0.568,-0.416528 0.97014,-0.927763 z m -81.826,-1.173092 c 0.88837,-1.741357 0.91079,-2.128294 0.0598,-1.031769 -1.01817,1.311892 -1.53805,2.428825 -1.13051,2.428825 0.19691,0 0.67875,-0.628675 1.07075,-1.397056 z m 13.09072,-5.209205 c 1.02968,-1.314263 2.9918,-3.583464 4.36027,-5.042662 2.92184,-3.115567 5.97659,-6.61886 7.1047,-8.14793 0.44046,-0.597 1.46422,-1.79325 2.27504,-2.65833 1.34477,-1.43476 1.60253,-1.5634 2.93574,-1.46509 1.36612,0.10074 1.45524,0.0514 1.3652,-0.75538 -0.11898,-1.06605 -1.04525,-2.13546 -1.84964,-2.13546 -0.33105,0 -1.29923,0.67469 -2.15151,1.49931 -1.68469,1.62999 -6.73374,7.741633 -8.96187,10.847915 -1.37134,1.911808 -2.95205,3.981622 -5.90099,7.726849 -0.82542,1.048311 -1.71987,2.215889 -1.98765,2.59462 -0.44911,0.63518 -0.43158,0.65901 0.22584,0.307167 0.392,-0.209789 1.55519,-1.456746 2.58487,-2.771009 z m 7.37756,-0.84304 c 0,-0.939479 -0.90577,-0.465554 -1.76389,0.922912 -0.39591,0.640592 -0.94436,1.250873 -1.21878,1.35618 -0.27443,0.105308 -0.68745,0.54368 -0.91784,0.974165 -0.29154,0.544738 0.23772,0.266837 1.74081,-0.914058 1.23265,-0.968421 2.1597,-1.972525 2.1597,-2.339199 z m -26.8923,-2.526541 c 1.68139,-2.838521 2.62024,-4.83645 3.10363,-6.604713 0.38329,-1.402078 -2.07414,2.243473 -3.68596,5.468056 -2.62888,5.259288 -2.27215,5.955587 0.58233,1.136657 z m 179.998769,-3.254446 c 0.25964,-0.312843 0.98787,-0.784324 1.61829,-1.047729 0.63042,-0.263405 1.32333,-0.809857 1.5398,-1.214338 0.52417,-0.979428 0.061,-0.927756 -1.40967,0.157254 -0.66548,0.490971 -1.82409,1.076674 -2.57471,1.301563 -1.45982,0.437374 -2.04665,1.219486 -1.27352,1.697305 0.52999,0.327555 1.38979,-0.03853 2.09981,-0.894055 z m -21.04473,-2.154664 c 0.35862,-0.490093 0.56562,-0.977487 0.46002,-1.083095 -0.24954,-0.24953 -3.757879,0.59006 -3.757879,0.899301 0,0.387664 1.86428,1.397857 2.270149,1.230126 0.20663,-0.08539 0.66909,-0.556239 1.02771,-1.046332 z m -138.062609,-2.099384 0.69351,-1.389277 -1.05048,1.1521 c -0.57777,0.633646 -1.05049,1.419459 -1.05049,1.746247 0,0.809985 0.53749,0.233691 1.40746,-1.50907 z m 158.992589,-0.336377 c 2.46984,-1.27261 3.99438,-2.63016 3.99438,-3.55689 0,-0.40571 -0.35071,-0.31883 -1.54986,0.38392 -2.12433,1.24494 -5.79506,2.64924 -6.9249,2.64924 -1.37856,0 -1.53236,0.39451 -0.43572,1.117649 1.37999,0.909976 2.18644,0.812549 4.9161,-0.593919 z m -7.64729,-2.2668 c 0,-1.29381 0.0998,-1.35209 2.66603,-1.55658 3.26,-0.25978 8.27008,-2.72867 8.27008,-4.07537 0,-0.95775 -0.80148,-1.12752 -2.72235,-0.57662 -0.92806,0.26616 -2.37009,0.59198 -3.20453,0.72403 -0.99169,0.15695 -2.04985,0.68652 -3.05514,1.529 -0.84588,0.70889 -2.18722,1.73574 -2.98075,2.2819 -0.79353,0.54616 -1.44278,1.10471 -1.44278,1.24121 0,0.26978 1.77456,1.44529 2.20486,1.46056 0.14552,0.005 0.26458,-0.4575 0.26458,-1.02813 z m -169.198709,-5.85998 c 0.12047,-0.31394 0.0613,-0.45554 -0.13865,-0.33195 -0.1918,0.11854 -0.34874,0.36491 -0.34874,0.54749 0,0.50744 0.25286,0.39562 0.48739,-0.21554 z m 6.54498,-2.95668 c 0.62989,-1.2565 0.62021,-2.14027 -0.0235,-2.14027 -0.41625,0 -1.69877,2.74523 -1.70949,3.65917 -0.007,0.56097 0.0759,0.59112 0.5472,0.19999 0.30523,-0.25332 0.83881,-1.02682 1.18576,-1.71889 z m -4.62045,-0.46458 c 1.27523,-2.24382 1.95231,-4.63392 1.65185,-5.83103 -0.28795,-1.1473 -0.71805,-0.66446 -1.18752,1.33312 -0.44297,1.88482 -1.2991,4.86632 -1.64611,5.73264 -0.50261,1.25476 0.16096,0.56147 1.18178,-1.23473 z m 173.788599,0.55203 c 1.41428,-0.67442 1.49696,-1.07062 0.6324,-3.03018 l -0.61429,-1.39232 -1.76696,0.21238 c -0.97182,0.11681 -2.10612,0.21376 -2.52065,0.21545 -0.6204,0.002 -0.79516,0.27957 -0.98815,1.56651 -0.342,2.28064 0.23339,3.02266 2.3439,3.02266 0.91688,0 2.22807,-0.26753 2.91375,-0.5945 z m -1.22508,-21.36591 c -0.005,-0.88416 -1.31787,-2.40016 -3.01865,-3.48479 -0.95784,-0.61084 -2.37652,-1.53327 -3.15263,-2.04984 -1.72509,-1.1482 -3.82205,-2.02554 -5.46806,-2.28776 -1.06352,-0.16942 -1.2905,-0.0765 -1.63707,0.67043 -0.46761,1.00779 -0.36162,1.06344 2.69541,1.41508 1.06715,0.12275 2.41652,0.39741 2.99861,0.61036 2.22994,0.81579 5.04314,2.77793 5.9521,4.15147 0.92841,1.40292 1.63478,1.82539 1.63029,0.97505 z M -202.97321,91.368048 c -2.18548,-0.75987 -5.5239,-2.16049 -7.68399,-3.22378 -2.60401,-1.28182 -3.50063,-2.42635 -2.60353,-3.32345 0.51633,-0.51633 2.77664,-0.39799 4.58509,0.24007 0.808,0.28509 1.4691,0.45661 1.4691,0.38118 0,-0.16487 5.45274,1.34561 6.70278,1.85674 3.386,1.38452 3.12296,4.34364 -0.38056,4.28108 -0.85785,-0.0153 -1.79785,-0.11065 -2.08889,-0.21184 z m -10.39154,-11.52347 c -1.06518,-0.77888 -0.46973,-2.16013 1.22324,-2.83752 0.78181,-0.31282 1.81336,-0.56876 2.29234,-0.56876 1.21093,0 5.90928,-1.31707 8.54474,-2.39531 2.49581,-1.0211 3.44169,-0.8491 4.31616,0.78485 0.56374,1.05336 0.28692,1.8182 -0.89324,2.46794 -0.37508,0.20651 -1.17616,0.72454 -1.78017,1.15119 -0.604,0.42664 -2.16166,1.02236 -3.46147,1.3238 -2.99411,0.69438 -9.33046,0.74004 -10.2416,0.0738 z m -4.08102,-5.35701 c -0.61469,-0.74066 -0.0586,-1.86872 1.56973,-3.18405 0.7073,-0.57136 1.9551,-1.5996 2.77289,-2.28498 0.81779,-0.68539 2.20126,-1.70891 3.07439,-2.27449 0.87312,-0.56559 1.98437,-1.37658 2.46944,-1.8022 0.48507,-0.42562 1.98305,-1.50554 3.32885,-2.39981 3.5495,-2.35864 5.3077,-2.11052 5.07239,0.71581 -0.1029,1.23582 -0.32767,1.48117 -3.09286,3.37601 -1.64005,1.12383 -3.15562,2.04333 -3.36793,2.04333 -0.47849,0 -4.9925,2.94252 -6.12302,3.99136 -0.45714,0.42413 -0.96916,1.12832 -1.13779,1.56489 -0.26552,0.68736 -0.56207,0.79375 -2.21243,0.79375 -1.28009,0 -2.05285,-0.17717 -2.35366,-0.53962 z m 197.944839,-142.89394 c 0.0169,-0.410969 0.10052,-0.494559 0.21314,-0.213138 0.1019,0.25466 0.0894,0.558934 -0.0278,0.676159 -0.11722,0.117224 -0.2006,-0.09114 -0.18528,-0.463021 z"
       style="fill:#000000;stroke-width:0.35277775" />
  </g>
</svg>
