<?xml version="1.0" encoding="UTF-8" standalone="no"?>
<!-- Created with Inkscape (http://www.inkscape.org/) -->

<svg
   xmlns:dc="http://purl.org/dc/elements/1.1/"
   xmlns:cc="http://creativecommons.org/ns#"
   xmlns:rdf="http://www.w3.org/1999/02/22-rdf-syntax-ns#"
   xmlns:svg="http://www.w3.org/2000/svg"
   xmlns="http://www.w3.org/2000/svg"
   xmlns:sodipodi="http://sodipodi.sourceforge.net/DTD/sodipodi-0.dtd"
   xmlns:inkscape="http://www.inkscape.org/namespaces/inkscape"
   width="103.88385mm"
   height="109.04956mm"
   viewBox="0 0 103.88385 109.04956"
   version="1.1"
   id="svg8"
   inkscape:version="0.92.1 r15371"
   sodipodi:docname="FX13_robin.svg">
  <defs
     id="defs2" />
  <sodipodi:namedview
     id="base"
     pagecolor="#ffffff"
     bordercolor="#666666"
     borderopacity="1.0"
     inkscape:pageopacity="0.0"
     inkscape:pageshadow="2"
     inkscape:zoom="0.68626051"
     inkscape:cx="350.09572"
     inkscape:cy="228.67136"
     inkscape:document-units="mm"
     inkscape:current-layer="layer2"
     showgrid="false"
     inkscape:window-width="1920"
     inkscape:window-height="1016"
     inkscape:window-x="0"
     inkscape:window-y="27"
     inkscape:window-maximized="1"
     inkscape:snap-global="false"
     fit-margin-top="0"
     fit-margin-left="0"
     fit-margin-right="0"
     fit-margin-bottom="0" />
  <metadata
     id="metadata5">
    <rdf:RDF>
      <cc:Work
         rdf:about="">
        <dc:format>image/svg+xml</dc:format>
        <dc:type
           rdf:resource="http://purl.org/dc/dcmitype/StillImage" />
        <dc:title></dc:title>
      </cc:Work>
    </rdf:RDF>
  </metadata>
  <g
     inkscape:label="Layer 1"
     inkscape:groupmode="layer"
     id="layer1"
     style="display:inline"
     transform="translate(-51.084524,-57.382253)" />
  <g
     inkscape:groupmode="layer"
     id="layer2"
     inkscape:label="Layer 2"
     style="opacity:1"
     transform="translate(-51.084524,-57.382253)">
    <path
       style="opacity:1;fill:#000000;stroke:none;stroke-width:0.28909251px;stroke-linecap:butt;stroke-linejoin:miter;stroke-opacity:1"
       d="m 135.30027,143.05002 c -0.40918,0.10008 -1.37115,-1.61612 -2.02357,-1.40229 -0.65243,0.21383 -0.68292,1.19706 -0.68292,1.19706 0,0 0.17587,-0.66451 0.78854,-0.59757 0.61268,0.0669 2.27823,1.55684 2.27823,1.55684 z"
       id="path4586-2"
       inkscape:connector-curvature="0"
       sodipodi:nodetypes="cccccc"
       inkscape:transform-center-x="3.3615586"
       inkscape:transform-center-y="-2.1774795" />
    <path
       style="fill:#000000;stroke:none;stroke-width:0.28909251px;stroke-linecap:butt;stroke-linejoin:miter;stroke-opacity:1"
       d="m 96.224841,161.71881 c -0.0662,0.0341 1.133417,1.46846 0.972921,1.96998 -0.160486,0.50151 -1.103336,1.0291 -0.938833,0.8606 0.164511,-0.16851 0.487466,-1.00505 0.264804,-1.5186 -0.222669,-0.51356 -0.298892,-1.31198 -0.298892,-1.31198 z"
       id="path4588"
       inkscape:connector-curvature="0" />
    <path
       style="opacity:1;fill:#000000;stroke:none;stroke-width:0.28909251px;stroke-linecap:butt;stroke-linejoin:miter;stroke-opacity:1"
       d="m 107.37843,158.81414 c -0.004,0.0743 1.84221,-0.21735 2.18991,0.17811 0.34768,0.39547 0.31556,1.47542 0.25557,1.24769 -0.06,-0.22772 -0.6115,-0.93477 -1.16647,-1.00775 -0.55498,-0.073 -1.27901,-0.41805 -1.27901,-0.41805 z"
       id="path4588-7"
       inkscape:connector-curvature="0" />
    <path
       style="opacity:1;fill:#000000;stroke:none;stroke-width:0.28909251px;stroke-linecap:butt;stroke-linejoin:miter;stroke-opacity:1"
       d="m 104.45325,163.71139 c -0.0527,0.0527 1.52706,1.05315 1.52706,1.57972 0,0.52657 -0.7372,1.31643 -0.63188,1.1058 0.10533,-0.21063 0.15797,-1.1058 -0.21063,-1.52705 -0.3686,-0.42127 -0.68455,-1.15847 -0.68455,-1.15847 z"
       id="path4588-6"
       inkscape:connector-curvature="0" />
    <path
       style="opacity:1;fill:#000000;stroke:none;stroke-width:0.28909251px;stroke-linecap:butt;stroke-linejoin:miter;stroke-opacity:1"
       d="m 137.77838,151.8225 c -0.0712,0.0216 0.85132,1.64811 0.60338,2.11267 -0.24794,0.46455 -1.27021,0.81426 -1.07811,0.67803 0.1921,-0.13622 0.66002,-0.90117 0.53317,-1.44636 -0.12683,-0.54521 -0.0584,-1.34434 -0.0584,-1.34434 z"
       id="path4588-5"
       inkscape:connector-curvature="0" />
    <path
       style="opacity:1;fill:#000000;stroke:none;stroke-width:0.28909251px;stroke-linecap:butt;stroke-linejoin:miter;stroke-opacity:1"
       d="m 147.89546,151.3896 c -0.0527,0.0527 1.52705,1.05315 1.52705,1.57972 0,0.52657 -0.7372,1.31643 -0.63188,1.1058 0.10533,-0.21063 0.15797,-1.1058 -0.21063,-1.52705 -0.3686,-0.42127 -0.68454,-1.15847 -0.68454,-1.15847 z"
       id="path4588-3-5"
       inkscape:connector-curvature="0" />
    <path
       style="opacity:1;fill:#000000;stroke:none;stroke-width:0.28909251px;stroke-linecap:butt;stroke-linejoin:miter;stroke-opacity:1"
       d="m 145.9998,155.97077 c -0.0527,0.0527 1.52705,1.05315 1.52705,1.57972 0,0.52658 -0.7372,1.31643 -0.63188,1.1058 0.10533,-0.21063 0.15796,-1.1058 -0.21064,-1.52705 -0.3686,-0.42127 -0.68453,-1.15847 -0.68453,-1.15847 z"
       id="path4588-3"
       inkscape:connector-curvature="0" />
    <path
       style="fill:#808080;fill-opacity:1;stroke:none;stroke-width:0.28909251px;stroke-linecap:butt;stroke-linejoin:miter;stroke-opacity:1"
       d="m 83.62667,85.401233 c -1.89566,2.000974 -32.542146,3.580688 -32.542146,3.580688 0,0 6.424181,0.842517 6.95075,0.947831 0.526574,0.105319 -1.4744,3.054118 -0.7372,2.738174 0.7372,-0.315943 12.427102,-1.474401 13.164303,-1.369087 0.737203,0.105318 13.690875,10.320811 14.006819,9.899551 0.315943,-0.42125 4.317892,-8.425148 4.317892,-8.425148 z"
       id="path4578"
       inkscape:connector-curvature="0" />
    <path
       style="fill:#808080;fill-opacity:1;stroke:none;stroke-width:0.28909251px;stroke-linecap:butt;stroke-linejoin:miter;stroke-opacity:1"
       d="m 148.07911,80.872711 -0.10533,-3.686005 c 0,0 2.94881,-6.634809 1.4744,-11.795214 -1.4744,-5.160406 -5.37672,-7.448421 -6.95074,-7.687954 -1.57403,-0.239534 -12.78435,-1.013408 -16.745,1.263774 -1.75428,1.11489 -5.7923,6.634809 -7.79327,7.582636 -2.00097,0.947831 -8.53046,4.633836 -9.05703,4.633836 -0.52658,0 -8.31985,3.159434 -9.267675,4.001948 -0.947827,0.842516 -16.007794,10.215501 -16.007794,10.215501 l -1.895661,2.000974 c 0,0 5.160406,6.95075 4.528522,6.95075 -0.631887,0 -5.897609,6.634813 -4.212578,9.372983 1.68503,2.73818 10.320814,13.58556 10.320814,13.58556 0,0 1.790344,6.31887 4.423206,7.05607 2.632864,0.7372 17.587506,7.89858 17.587506,7.89858 0,0 10.53144,-6.10823 13.58556,-7.58263 3.05412,-1.47441 16.63969,-8.7411 16.42905,-9.26767 -0.21063,-0.52658 8.0039,-16.323746 7.47733,-20.852263 -0.52658,-4.528519 -2.10629,-9.688928 -2.63287,-11.268645 -0.52657,-1.579714 -1.36908,-2.211601 -1.15845,-2.422231 z"
       id="path4558"
       inkscape:connector-curvature="0"
       sodipodi:nodetypes="ccczccscccsccscccsscc" />
    <path
       style="opacity:1;fill:#f57b00;fill-opacity:1;stroke:none;stroke-width:0.28909251px;stroke-linecap:butt;stroke-linejoin:miter;stroke-opacity:1"
       d="m 140.04825,59.940305 c -0.55064,0.0029 -1.10543,0.02752 -1.65833,0.08018 -4.42321,0.421257 -5.8976,1.053042 -5.8976,1.053042 0,0 -4.31758,-1.053288 -6.00262,1.474259 -1.70316,2.554743 0.42122,5.897601 0.42122,5.897601 l -8.00369,7.372423 c 0,0 -4.21266,5.265551 -2.00106,7.582469 10.0374,21.826871 -11.11916,31.835761 18.78593,37.225171 4.37832,-2.37793 7.60952,-3.83453 8.81271,-4.98647 1.2032,-1.15193 7.89232,-16.546808 7.36574,-21.075327 -0.52657,-4.528518 -2.10631,-9.689245 -2.63288,-11.268962 -0.52657,-1.579712 -1.36926,-2.211084 -1.15863,-2.421714 l -0.10502,-3.686493 c 0,0 2.94867,-6.634798 1.47426,-11.795201 -0.56763,-1.986684 -1.61942,-3.548032 -2.74017,-4.73389 -1.81247,-0.307658 -4.186,-0.730022 -6.65986,-0.717085 z"
       id="path4558-3"
       inkscape:connector-curvature="0"
       sodipodi:nodetypes="sccccccczssccccs" />
    <ellipse
       style="fill:#000000;fill-opacity:1;stroke:none;stroke-width:2.46632051;stroke-miterlimit:4;stroke-dasharray:none"
       id="path4512"
       cx="130.49626"
       cy="65.796204"
       rx="3.2806118"
       ry="3.1997664"
       inkscape:export-xdpi="96"
       inkscape:export-ydpi="96" />
    <ellipse
       style="fill:#ffffff;fill-opacity:1;stroke:none;stroke-width:0.89581794;stroke-miterlimit:4;stroke-dasharray:none"
       id="path4512-3"
       cx="129.42931"
       cy="65.172653"
       rx="1.1915849"
       ry="1.1622204"
       inkscape:export-xdpi="96"
       inkscape:export-ydpi="96" />
    <path
       style="fill:#8a6b66;fill-opacity:1;stroke:none;stroke-width:0.28909251px;stroke-linecap:butt;stroke-linejoin:miter;stroke-opacity:1"
       d="m 92.367767,117.3115 c 0,0 -0.737189,7.05607 0.210639,8.84642 0.947831,1.79034 2.593467,36.74552 3.791321,36.5441 1.197858,-0.20142 -0.431641,-5.26976 1.895657,-5.05509 2.327296,0.21467 5.897606,7.89859 7.056066,7.2667 1.15845,-0.63189 -4.42805,-7.80841 -3.79132,-8.0039 1.2158,-0.37329 6.31889,3.37004 7.16138,2.42224 0.84248,-0.94781 -9.794234,-5.16041 -10.004861,-6.21356 -0.210638,-1.05314 -2.422239,-4.63383 -2.211609,-5.0551 0.210626,-0.42125 -0.21063,-22.43197 -0.526573,-24.32763 -0.315941,-1.89565 0.631902,-5.58166 -1.474401,-6.00292 z"
       id="path4580"
       inkscape:connector-curvature="0"
       sodipodi:nodetypes="cczzzszccscc" />
    <g
       id="g4686"
       transform="matrix(1.0926332,0,0,1.0926332,-12.683362,-14.580465)">
      <path
         sodipodi:nodetypes="cccccc"
         inkscape:connector-curvature="0"
         id="path4586"
         d="m 96.52805,149.40254 c -0.385543,0 -0.867473,-1.73494 -1.49398,-1.68675 -0.62651,0.0482 -0.867474,0.91567 -0.867474,0.91567 0,0 0.351962,-0.56955 0.882089,-0.37678 0.530124,0.19277 1.431171,1.72618 1.431171,1.72618 z"
         style="fill:#000000;stroke:none;stroke-width:0.26458332px;stroke-linecap:butt;stroke-linejoin:miter;stroke-opacity:1" />
      <path
         sodipodi:nodetypes="cccc"
         inkscape:connector-curvature="0"
         id="path4582"
         d="m 99.566628,153.09585 c -1.060247,-0.86747 -2.795191,-5.39761 -3.469894,-5.01207 -0.544088,3.00648 1.177482,4.23409 3.56628,6.1687 0.289155,0 -0.09639,-1.15663 -0.09639,-1.15663 z"
         style="fill:#8a6b66;fill-opacity:1;stroke:none;stroke-width:0.26458332px;stroke-linecap:butt;stroke-linejoin:miter;stroke-opacity:1" />
    </g>
    <path
       style="fill:#8a6b66;fill-opacity:1;stroke:none;stroke-width:0.28909251px;stroke-linecap:butt;stroke-linejoin:miter;stroke-opacity:1"
       d="m 120.69736,127.10574 c 1.89567,0.42127 16.53436,16.63969 16.53436,16.63969 0,0 -0.22401,9.10783 0.6319,9.37298 0.85592,0.26515 0.29566,-4.35436 1.4744,-4.63383 1.17875,-0.27948 6.21356,8.95171 7.2667,8.53046 1.05315,-0.42126 -4.99638,-8.16507 -3.26475,-8.10921 1.73163,0.0558 5.0551,4.00194 5.26572,3.05412 0.21063,-0.94783 -6.21355,-5.26573 -6.63481,-5.79229 -0.42126,-0.52657 -17.58751,-19.79912 -17.58751,-19.79912 z"
       id="path4584"
       inkscape:connector-curvature="0"
       sodipodi:nodetypes="cczzzzzccc" />
    <path
       style="opacity:1;fill:#8a6b66;fill-opacity:1;stroke:none;stroke-width:0.28909251px;stroke-linecap:butt;stroke-linejoin:miter;stroke-opacity:1"
       d="m 139.37649,146.53522 c -1.3505,-0.64539 -4.36812,-5.00288 -4.98411,-4.41851 0.20313,3.33215 2.3491,4.18804 5.38674,5.62105 0.3069,-0.0751 -0.40264,-1.20254 -0.40264,-1.20254 z"
       id="path4582-6"
       inkscape:connector-curvature="0"
       sodipodi:nodetypes="cccc"
       inkscape:transform-center-x="0.36447151"
       inkscape:transform-center-y="0.0062067646" />
    <path
       style="fill:#000000;stroke:none;stroke-width:0.28909251px;stroke-linecap:butt;stroke-linejoin:miter;stroke-opacity:1"
       d="m 139.4702,67.441745 c 0.42874,-1.39994 2.33098,-0.626594 3.74588,-1.743621 1.41491,-1.117027 1.28307,-1.580019 3.33612,-2.141521 2.05305,-0.561502 8.34047,0.968093 8.41495,1.191498 0.0745,0.223405 -3.26914,2.588329 -6.32235,3.109609 -4.10953,0.768185 -5.70032,0.656487 -9.1746,-0.415965 z"
       id="path4556"
       inkscape:connector-curvature="0"
       sodipodi:nodetypes="cszccc" />
    <path
       style="opacity:1;fill:#e7e7ea;fill-opacity:1;stroke:none;stroke-width:0.28909251px;stroke-linecap:butt;stroke-linejoin:miter;stroke-opacity:1"
       d="m 88.073162,111.84415 c 2.26411,2.91332 4.294606,5.46735 4.294606,5.46735 0,0 1.79048,6.31903 4.423337,7.05624 2.632864,0.73718 14.630075,7.99285 17.587375,7.89841 2.9573,-0.0944 10.53138,-6.10839 13.58549,-7.5828 2.44182,-1.17881 11.62549,-5.84157 15.09811,-8.02059 -4.76018,-0.29577 -12.14305,-0.27935 -16.83999,0.66004 -7.44686,1.48937 -6.404,-5.21264 -14.29767,-4.46795 -4.89785,0.46206 -15.80657,-0.33735 -23.851258,-1.0107 z"
       id="path4558-9"
       inkscape:connector-curvature="0"
       sodipodi:nodetypes="ccczccssc" />
  </g>
</svg>
